<svg id="svg" version="1.1" xmlns="http://www.w3.org/2000/svg" xmlns:xlink="http://www.w3.org/1999/xlink" width="400" height="400" viewBox="0, 0, 400,400"><g id="svgg"><path id="path0" d="M127.000 130.244 C 94.138 131.742,75.254 150.771,78.986 178.625 C 80.893 192.858,87.023 201.638,100.831 209.914 C 104.403 212.055,109.915 214.779,122.343 220.547 C 135.657 226.725,138.709 229.246,139.412 234.642 C 139.900 238.380,137.583 242.540,133.976 244.403 C 124.686 249.201,98.388 245.081,80.424 236.012 C 79.144 235.366,77.985 234.949,77.848 235.085 C 77.712 235.222,77.600 242.769,77.600 251.857 L 77.600 268.382 78.523 268.986 C 83.535 272.270,96.324 275.852,107.200 277.019 C 147.357 281.327,174.521 265.922,177.654 237.062 C 179.254 222.325,174.488 209.918,163.986 201.479 C 159.385 197.782,143.668 188.800,141.799 188.800 C 141.325 188.800,128.050 182.178,124.945 180.392 C 118.923 176.930,116.800 174.273,116.800 170.200 C 116.800 158.595,135.776 157.493,160.932 167.637 C 163.594 168.710,165.924 169.436,166.111 169.249 C 166.526 168.834,177.598 141.179,177.599 140.555 C 177.600 139.807,167.501 136.013,159.760 133.852 C 149.827 131.081,137.773 129.753,127.000 130.244 M230.420 137.100 C 229.446 140.125,227.622 145.750,226.368 149.600 C 225.113 153.450,222.250 162.270,220.006 169.200 C 217.761 176.130,215.417 183.330,214.797 185.200 C 214.176 187.070,211.836 194.270,209.597 201.200 C 207.357 208.130,205.017 215.330,204.397 217.200 C 203.776 219.070,201.439 226.270,199.203 233.200 C 196.967 240.130,194.806 246.790,194.400 248.000 C 190.160 260.642,185.599 275.275,185.798 275.597 C 186.100 276.086,226.341 276.152,227.107 275.666 C 227.654 275.319,227.802 274.876,229.608 268.200 C 230.262 265.780,231.336 261.820,231.995 259.400 C 232.653 256.980,233.486 253.830,233.845 252.400 C 234.204 250.970,234.679 249.574,234.901 249.297 C 235.218 248.901,240.289 248.816,258.723 248.897 L 282.143 249.000 282.475 250.200 C 283.298 253.166,284.971 259.431,286.214 264.200 C 288.891 274.475,289.146 275.320,289.669 275.651 C 290.347 276.081,330.686 276.108,330.951 275.679 C 331.060 275.503,330.458 273.298,329.613 270.779 C 328.768 268.261,325.739 259.090,322.883 250.400 C 311.710 216.412,301.289 184.737,296.630 170.600 C 293.947 162.460,289.965 150.355,287.782 143.700 L 283.812 131.600 258.002 131.600 L 232.192 131.600 230.420 137.100 M258.764 156.900 C 258.954 157.395,259.301 158.700,259.535 159.800 C 260.924 166.337,264.619 181.187,267.970 193.700 C 268.426 195.405,269.174 198.195,269.631 199.900 C 270.088 201.605,270.976 204.980,271.604 207.400 C 272.232 209.820,273.025 212.858,273.365 214.152 C 274.218 217.396,275.186 217.200,258.333 217.200 L 243.112 217.200 243.291 215.900 C 243.390 215.185,244.040 212.485,244.735 209.900 C 247.942 197.985,252.730 179.126,254.358 172.000 C 254.836 169.910,255.392 167.480,255.595 166.600 C 256.782 161.455,257.600 157.442,257.600 156.770 C 257.600 155.716,258.340 155.799,258.764 156.900 " stroke="none" fill="#fafafa" fill-rule="evenodd"></path><path id="path1" d="M180.000 21.600 C 180.000 21.837,178.533 22.000,176.400 22.000 C 174.267 22.000,172.800 22.163,172.800 22.400 C 172.800 22.620,171.887 22.800,170.771 22.800 C 169.578 22.800,168.515 23.028,168.190 23.353 C 167.811 23.732,167.064 23.841,165.818 23.701 C 164.612 23.565,164.000 23.648,164.000 23.948 C 164.000 24.217,163.271 24.400,162.200 24.400 C 161.210 24.400,160.400 24.580,160.400 24.800 C 160.400 25.020,159.939 25.200,159.376 25.200 C 158.813 25.200,158.454 25.037,158.577 24.837 C 158.700 24.638,158.352 24.683,157.804 24.937 C 157.255 25.192,156.805 25.535,156.803 25.700 C 156.801 25.865,156.429 26.000,155.976 26.000 C 155.523 26.000,155.254 25.837,155.377 25.637 C 155.500 25.438,155.152 25.483,154.604 25.737 C 154.055 25.992,153.605 26.335,153.603 26.500 C 153.601 26.665,152.970 26.800,152.200 26.800 C 151.430 26.800,150.800 26.980,150.800 27.200 C 150.800 27.420,150.069 27.600,149.176 27.600 C 148.196 27.600,147.651 27.758,147.800 28.000 C 147.947 28.238,147.471 28.400,146.624 28.400 C 145.841 28.400,145.200 28.580,145.200 28.800 C 145.200 29.020,144.919 29.200,144.576 29.200 C 144.191 29.200,144.063 29.009,144.241 28.700 C 144.399 28.425,144.083 28.605,143.539 29.100 C 142.994 29.595,142.166 30.000,141.698 30.000 C 141.230 30.000,140.736 30.180,140.600 30.400 C 140.464 30.620,139.823 30.800,139.176 30.800 C 138.529 30.800,138.000 30.980,138.000 31.200 C 138.000 31.420,137.550 31.600,137.000 31.600 C 136.450 31.600,136.000 31.780,136.000 32.000 C 136.000 32.220,135.550 32.400,135.000 32.400 C 134.450 32.400,134.000 32.580,134.000 32.800 C 134.000 33.020,133.460 33.200,132.800 33.200 C 132.140 33.200,131.600 33.380,131.600 33.600 C 131.600 33.820,131.240 34.000,130.800 34.000 C 130.360 34.000,130.000 34.180,130.000 34.400 C 130.000 34.620,129.471 34.800,128.824 34.800 C 128.177 34.800,127.536 34.980,127.400 35.200 C 127.264 35.420,126.837 35.600,126.452 35.600 C 126.066 35.600,125.364 35.960,124.892 36.400 C 124.420 36.840,123.756 37.200,123.417 37.200 C 123.078 37.200,122.800 37.380,122.800 37.600 C 122.800 37.820,122.440 38.000,122.000 38.000 C 121.560 38.000,121.200 38.180,121.200 38.400 C 121.200 38.620,120.840 38.800,120.400 38.800 C 119.960 38.800,119.600 38.980,119.600 39.200 C 119.600 39.420,119.240 39.600,118.800 39.600 C 118.360 39.600,118.000 39.780,118.000 40.000 C 118.000 40.220,117.584 40.400,117.075 40.400 C 116.567 40.400,115.764 40.760,115.292 41.200 C 114.820 41.640,114.243 42.000,114.011 42.000 C 113.402 42.000,111.914 42.886,111.157 43.700 C 110.799 44.085,110.212 44.400,109.853 44.400 C 109.494 44.400,109.200 44.580,109.200 44.800 C 109.200 45.020,108.880 45.200,108.488 45.200 C 108.097 45.200,107.517 45.560,107.200 46.000 C 106.883 46.440,106.343 46.800,106.000 46.800 C 105.657 46.800,105.117 47.160,104.800 47.600 C 104.483 48.040,103.903 48.400,103.512 48.400 C 103.120 48.400,102.800 48.580,102.800 48.800 C 102.800 49.020,102.480 49.200,102.088 49.200 C 101.697 49.200,101.117 49.560,100.800 50.000 C 100.483 50.440,99.943 50.800,99.600 50.800 C 99.257 50.800,98.717 51.160,98.400 51.600 C 98.083 52.040,97.575 52.400,97.272 52.400 C 96.969 52.400,96.217 52.940,95.600 53.600 C 94.983 54.260,94.191 54.800,93.840 54.800 C 93.488 54.800,93.200 54.980,93.200 55.200 C 93.200 55.420,92.913 55.600,92.563 55.600 C 92.212 55.600,91.831 55.960,91.716 56.400 C 91.601 56.840,91.244 57.200,90.922 57.200 C 90.600 57.200,89.646 57.920,88.800 58.800 C 87.954 59.680,87.054 60.400,86.800 60.400 C 86.546 60.400,85.646 61.120,84.800 62.000 C 83.954 62.880,83.061 63.600,82.814 63.600 C 82.567 63.600,80.781 65.175,78.845 67.100 C 76.909 69.025,74.981 70.808,74.562 71.063 C 74.143 71.317,73.845 71.722,73.900 71.963 C 73.955 72.203,73.803 72.355,73.563 72.300 C 73.322 72.245,72.917 72.533,72.663 72.940 C 72.408 73.347,70.350 75.562,68.090 77.862 C 65.758 80.235,64.097 82.234,64.252 82.484 C 64.415 82.748,64.340 82.810,64.062 82.638 C 63.808 82.481,63.600 82.515,63.600 82.713 C 63.600 82.911,62.791 83.930,61.801 84.977 C 60.812 86.024,60.120 87.071,60.263 87.302 C 60.416 87.549,60.332 87.605,60.062 87.438 C 59.808 87.281,59.600 87.317,59.600 87.517 C 59.600 87.717,59.060 88.446,58.400 89.137 C 57.740 89.828,57.200 90.592,57.200 90.836 C 57.200 91.080,56.660 91.783,56.000 92.400 C 55.340 93.017,54.800 93.674,54.799 93.860 C 54.799 94.047,54.259 94.830,53.600 95.600 C 52.941 96.370,52.401 97.225,52.401 97.500 C 52.400 97.775,52.250 98.000,52.068 98.000 C 51.885 98.000,51.480 98.495,51.168 99.100 C 50.855 99.705,50.285 100.549,49.900 100.975 C 49.515 101.402,49.200 101.904,49.200 102.092 C 49.200 102.280,48.840 102.820,48.400 103.292 C 47.960 103.764,47.600 104.387,47.600 104.675 C 47.600 104.964,47.441 105.200,47.247 105.200 C 47.052 105.200,46.793 105.515,46.671 105.900 C 46.454 106.585,45.196 108.804,44.800 109.200 C 44.167 109.833,43.265 111.937,43.511 112.208 C 43.670 112.384,43.575 112.399,43.300 112.241 C 42.991 112.063,42.800 112.191,42.800 112.576 C 42.800 112.919,42.620 113.200,42.400 113.200 C 42.180 113.200,42.000 113.560,42.000 114.000 C 42.000 114.440,41.820 114.800,41.600 114.800 C 41.380 114.800,41.200 115.160,41.200 115.600 C 41.200 116.040,41.020 116.400,40.800 116.400 C 40.580 116.400,40.400 116.760,40.400 117.200 C 40.400 117.640,40.220 118.000,40.000 118.000 C 39.780 118.000,39.600 118.360,39.600 118.800 C 39.600 119.240,39.420 119.600,39.200 119.600 C 38.980 119.600,38.800 119.960,38.800 120.400 C 38.800 120.840,38.620 121.200,38.400 121.200 C 38.180 121.200,38.000 121.560,38.000 122.000 C 38.000 122.440,37.820 122.800,37.600 122.800 C 37.380 122.800,37.200 123.160,37.200 123.600 C 37.200 124.040,37.020 124.400,36.800 124.400 C 36.580 124.400,36.400 124.760,36.400 125.200 C 36.400 125.640,36.220 126.000,36.000 126.000 C 35.780 126.000,35.600 126.272,35.600 126.605 C 35.600 126.938,35.392 127.613,35.138 128.105 C 34.126 130.062,34.000 130.426,34.000 131.395 C 34.000 131.948,33.820 132.400,33.600 132.400 C 33.380 132.400,33.200 132.760,33.200 133.200 C 33.200 133.640,33.020 134.000,32.800 134.000 C 32.580 134.000,32.400 134.540,32.400 135.200 C 32.400 135.860,32.265 136.401,32.100 136.403 C 31.653 136.408,30.800 138.426,30.800 139.480 C 30.800 139.986,30.620 140.400,30.400 140.400 C 30.180 140.400,30.000 140.749,30.000 141.176 C 30.000 141.603,29.820 142.064,29.600 142.200 C 29.380 142.336,29.200 142.876,29.200 143.400 C 29.200 143.924,29.020 144.464,28.800 144.600 C 28.580 144.736,28.400 145.647,28.400 146.624 C 28.400 147.601,28.220 148.400,28.000 148.400 C 27.780 148.400,27.600 148.940,27.600 149.600 C 27.600 150.260,27.420 150.800,27.200 150.800 C 26.980 150.800,26.800 151.124,26.800 151.520 C 26.800 151.916,26.575 152.482,26.300 152.779 C 25.900 153.210,25.900 153.261,26.300 153.035 C 26.610 152.860,26.800 152.998,26.800 153.400 C 26.800 153.756,26.620 153.936,26.400 153.800 C 26.174 153.660,26.000 153.988,26.000 154.553 C 26.000 155.103,25.820 155.664,25.600 155.800 C 25.380 155.936,25.200 156.631,25.200 157.344 C 25.200 158.057,24.975 158.882,24.700 159.179 C 24.300 159.610,24.300 159.661,24.700 159.435 C 25.007 159.262,25.200 159.394,25.200 159.776 C 25.200 160.119,25.020 160.400,24.800 160.400 C 24.580 160.400,24.400 160.814,24.400 161.320 C 24.400 161.826,24.175 162.482,23.900 162.779 C 23.500 163.210,23.500 163.261,23.900 163.035 C 24.207 162.862,24.400 162.994,24.400 163.376 C 24.400 163.719,24.220 164.000,24.000 164.000 C 23.778 164.000,23.600 165.067,23.600 166.400 C 23.600 167.733,23.422 168.800,23.200 168.800 C 22.980 168.800,22.800 169.394,22.800 170.120 C 22.800 170.846,22.575 171.682,22.300 171.979 C 21.900 172.410,21.900 172.461,22.300 172.235 C 22.638 172.044,22.798 172.253,22.794 172.876 C 22.789 173.619,22.712 173.683,22.400 173.200 C 22.128 172.779,22.010 173.381,22.006 175.220 C 22.003 176.661,21.830 178.011,21.622 178.220 C 21.163 178.682,20.837 185.727,20.586 200.600 C 20.456 208.362,20.524 211.616,20.810 211.200 C 21.140 210.721,21.208 210.802,21.149 211.600 C 20.935 214.508,21.238 220.024,21.600 219.800 C 21.839 219.653,22.000 220.137,22.000 221.000 C 22.000 222.042,21.860 222.368,21.500 222.165 C 21.100 221.939,21.100 221.990,21.500 222.421 C 21.775 222.718,22.000 223.644,22.000 224.480 C 22.000 225.316,22.180 226.000,22.400 226.000 C 22.622 226.000,22.800 227.067,22.800 228.400 C 22.800 229.733,22.978 230.800,23.200 230.800 C 23.420 230.800,23.600 231.779,23.600 232.976 C 23.600 234.173,23.780 235.264,24.000 235.400 C 24.597 235.769,24.499 236.903,23.900 236.565 C 23.500 236.339,23.500 236.390,23.900 236.821 C 24.175 237.118,24.400 237.774,24.400 238.280 C 24.400 238.786,24.580 239.200,24.800 239.200 C 25.020 239.200,25.200 240.010,25.200 241.000 C 25.200 241.990,25.380 242.800,25.600 242.800 C 25.820 242.800,26.000 243.599,26.000 244.576 C 26.000 245.553,26.180 246.464,26.400 246.600 C 26.620 246.736,26.800 247.197,26.800 247.624 C 26.800 248.051,26.980 248.400,27.200 248.400 C 27.420 248.400,27.600 249.199,27.600 250.176 C 27.600 251.153,27.780 252.064,28.000 252.200 C 28.220 252.336,28.400 252.977,28.400 253.624 C 28.400 254.271,28.580 254.800,28.800 254.800 C 29.020 254.800,29.200 255.160,29.200 255.600 C 29.200 256.040,29.380 256.400,29.600 256.400 C 29.820 256.400,30.000 256.591,30.000 256.824 C 30.000 257.057,29.837 257.146,29.637 257.023 C 29.438 256.900,29.483 257.248,29.737 257.796 C 29.992 258.345,30.335 258.795,30.500 258.797 C 30.665 258.799,30.800 258.991,30.800 259.224 C 30.800 259.457,30.637 259.546,30.437 259.423 C 30.238 259.300,30.283 259.648,30.537 260.196 C 30.792 260.745,31.135 261.195,31.300 261.197 C 31.465 261.199,31.600 261.740,31.600 262.400 C 31.600 263.060,31.780 263.600,32.000 263.600 C 32.220 263.600,32.400 263.960,32.400 264.400 C 32.400 264.840,32.580 265.200,32.800 265.200 C 33.020 265.200,33.200 265.740,33.200 266.400 C 33.200 267.060,33.380 267.600,33.600 267.600 C 33.820 267.600,34.000 268.151,34.000 268.824 C 34.000 269.537,34.167 269.944,34.400 269.800 C 34.631 269.657,34.800 270.037,34.800 270.701 C 34.800 271.332,35.160 272.236,35.600 272.708 C 36.040 273.180,36.400 273.844,36.400 274.183 C 36.400 274.522,36.580 274.800,36.800 274.800 C 37.020 274.800,37.200 275.070,37.200 275.400 C 37.200 275.730,37.376 276.000,37.590 276.000 C 38.063 276.000,39.794 279.597,39.660 280.300 C 39.608 280.575,39.753 280.800,39.982 280.800 C 40.212 280.800,40.400 281.250,40.400 281.800 C 40.400 282.350,40.580 282.800,40.800 282.800 C 41.020 282.800,41.200 283.160,41.200 283.600 C 41.200 284.040,41.380 284.400,41.600 284.400 C 41.820 284.400,42.000 284.760,42.000 285.200 C 42.000 285.640,42.180 286.000,42.400 286.000 C 42.620 286.000,42.800 286.416,42.800 286.925 C 42.800 287.433,43.160 288.236,43.600 288.708 C 44.040 289.180,44.400 289.844,44.400 290.183 C 44.400 290.522,44.580 290.800,44.800 290.800 C 45.020 290.800,45.200 291.081,45.200 291.424 C 45.200 291.809,45.391 291.937,45.700 291.759 C 45.975 291.601,46.070 291.616,45.911 291.792 C 45.573 292.165,46.683 294.307,47.700 295.247 C 48.085 295.603,48.400 296.188,48.400 296.547 C 48.400 296.906,48.580 297.200,48.800 297.200 C 49.020 297.200,49.200 297.436,49.200 297.725 C 49.200 298.013,49.560 298.636,50.000 299.108 C 50.440 299.580,50.800 300.132,50.800 300.335 C 50.800 300.538,51.520 301.445,52.400 302.352 C 53.280 303.259,54.000 304.271,54.000 304.600 C 54.000 304.930,54.180 305.200,54.400 305.200 C 54.620 305.200,54.800 305.443,54.800 305.741 C 54.800 306.038,55.340 306.846,56.000 307.537 C 56.660 308.228,57.200 308.953,57.200 309.148 C 57.200 309.344,57.920 310.245,58.800 311.152 C 59.680 312.059,60.400 312.962,60.400 313.160 C 60.400 313.357,61.269 314.406,62.331 315.491 C 63.393 316.576,64.377 317.764,64.518 318.131 C 64.659 318.499,65.051 318.800,65.387 318.800 C 65.733 318.800,66.000 319.148,66.000 319.600 C 66.000 320.133,66.267 320.400,66.800 320.400 C 67.246 320.400,67.600 320.667,67.600 321.003 C 67.600 321.791,79.009 333.200,79.797 333.200 C 80.128 333.200,80.400 333.476,80.400 333.813 C 80.400 334.149,80.715 334.543,81.100 334.688 C 81.485 334.833,82.277 335.457,82.860 336.075 C 83.444 336.694,84.123 337.200,84.369 337.200 C 84.616 337.200,85.812 338.195,87.029 339.411 C 88.264 340.647,89.435 341.502,89.682 341.349 C 89.948 341.185,90.010 341.260,89.838 341.538 C 89.681 341.792,89.717 342.000,89.917 342.000 C 90.117 342.000,90.846 342.540,91.537 343.200 C 92.228 343.860,92.929 344.400,93.096 344.401 C 93.263 344.401,94.030 344.941,94.800 345.600 C 95.570 346.259,96.425 346.799,96.700 346.799 C 96.975 346.800,97.200 346.950,97.200 347.132 C 97.200 347.315,97.695 347.720,98.300 348.032 C 98.905 348.345,99.749 348.915,100.175 349.300 C 100.602 349.685,101.104 350.000,101.292 350.000 C 101.480 350.000,102.020 350.360,102.492 350.800 C 102.964 351.240,103.587 351.600,103.875 351.600 C 104.164 351.600,104.400 351.780,104.400 352.000 C 104.400 352.220,104.760 352.400,105.200 352.400 C 105.640 352.400,106.000 352.580,106.000 352.800 C 106.000 353.020,106.320 353.200,106.712 353.200 C 107.103 353.200,107.683 353.560,108.000 354.000 C 108.317 354.440,108.897 354.800,109.288 354.800 C 109.680 354.800,110.000 354.980,110.000 355.200 C 110.000 355.420,110.320 355.600,110.712 355.600 C 111.103 355.600,111.683 355.960,112.000 356.400 C 112.317 356.840,112.897 357.200,113.288 357.200 C 113.680 357.200,114.001 357.335,114.003 357.500 C 114.007 357.859,115.944 358.800,116.680 358.800 C 116.966 358.800,117.200 358.980,117.200 359.200 C 117.200 359.420,117.560 359.600,118.000 359.600 C 118.440 359.600,118.800 359.780,118.800 360.000 C 118.800 360.220,119.160 360.400,119.600 360.400 C 120.040 360.400,120.400 360.547,120.400 360.726 C 120.400 361.192,123.531 362.800,124.438 362.800 C 124.857 362.800,125.200 362.980,125.200 363.200 C 125.200 363.420,125.560 363.600,126.000 363.600 C 126.440 363.600,126.800 363.780,126.800 364.000 C 126.800 364.220,127.160 364.400,127.600 364.400 C 128.040 364.400,128.400 364.580,128.400 364.800 C 128.400 365.020,128.749 365.200,129.176 365.200 C 129.603 365.200,130.064 365.380,130.200 365.600 C 130.336 365.820,130.887 366.000,131.424 366.000 C 131.961 366.000,132.400 366.180,132.400 366.400 C 132.400 366.620,132.940 366.800,133.600 366.800 C 134.260 366.800,134.800 366.980,134.800 367.200 C 134.800 367.420,135.340 367.600,136.000 367.600 C 136.660 367.600,137.200 367.780,137.200 368.000 C 137.200 368.220,137.650 368.400,138.200 368.400 C 138.750 368.400,139.201 368.535,139.203 368.700 C 139.209 369.217,141.301 370.000,142.680 370.000 C 143.406 370.000,144.000 370.180,144.000 370.400 C 144.000 370.620,144.435 370.800,144.967 370.800 C 145.498 370.800,145.995 370.984,146.070 371.209 C 146.144 371.433,146.879 371.642,147.703 371.673 C 148.526 371.704,149.200 371.880,149.200 372.065 C 149.200 372.249,149.830 372.400,150.600 372.400 C 151.370 372.400,152.000 372.580,152.000 372.800 C 152.000 373.020,152.630 373.200,153.400 373.200 C 154.170 373.200,154.800 373.380,154.800 373.600 C 154.800 373.820,155.239 374.000,155.776 374.000 C 156.313 374.000,156.876 374.199,157.026 374.443 C 157.222 374.760,157.384 374.750,157.596 374.406 C 157.817 374.049,158.112 374.039,158.746 374.363 C 159.216 374.603,159.979 374.993,160.442 375.230 C 161.042 375.536,161.207 375.536,161.018 375.230 C 160.872 374.993,161.033 374.800,161.376 374.800 C 161.719 374.800,162.000 374.980,162.000 375.200 C 162.000 375.420,162.414 375.600,162.920 375.600 C 163.426 375.600,164.082 375.825,164.379 376.100 C 164.810 376.500,164.861 376.500,164.635 376.100 C 164.449 375.770,164.634 375.600,165.176 375.600 C 165.629 375.600,166.000 375.780,166.000 376.000 C 166.000 376.220,166.504 376.400,167.120 376.400 C 167.736 376.400,168.482 376.625,168.779 376.900 C 169.210 377.300,169.261 377.300,169.035 376.900 C 168.849 376.570,169.034 376.400,169.576 376.400 C 170.029 376.400,170.400 376.580,170.400 376.800 C 170.400 377.031,171.667 377.200,173.400 377.200 C 175.133 377.200,176.400 377.369,176.400 377.600 C 176.400 377.840,178.008 378.000,180.424 378.000 C 182.637 378.000,184.351 378.155,184.234 378.344 C 184.117 378.534,187.392 378.776,191.511 378.883 C 201.008 379.130,215.648 378.801,215.367 378.346 C 215.249 378.156,216.963 378.000,219.176 378.000 C 221.592 378.000,223.200 377.840,223.200 377.600 C 223.200 377.380,223.751 377.200,224.424 377.200 C 225.286 377.200,225.564 377.347,225.365 377.700 C 225.139 378.100,225.190 378.100,225.621 377.700 C 225.918 377.425,226.844 377.200,227.680 377.200 C 228.516 377.200,229.200 377.020,229.200 376.800 C 229.200 376.580,229.571 376.400,230.024 376.400 C 230.566 376.400,230.751 376.570,230.565 376.900 C 230.339 377.300,230.390 377.300,230.821 376.900 C 231.118 376.625,231.965 376.400,232.704 376.400 C 233.497 376.400,233.946 376.236,233.800 376.000 C 233.664 375.780,233.934 375.600,234.400 375.600 C 234.962 375.600,235.152 375.769,234.965 376.100 C 234.739 376.500,234.790 376.500,235.221 376.100 C 235.518 375.825,236.275 375.600,236.904 375.600 C 237.564 375.600,237.943 375.431,237.800 375.200 C 237.649 374.956,238.263 374.800,239.376 374.800 C 240.379 374.800,241.200 374.620,241.200 374.400 C 241.200 374.180,241.515 374.003,241.900 374.006 C 242.498 374.011,242.513 374.069,242.000 374.400 C 241.639 374.633,241.590 374.790,241.876 374.794 C 242.138 374.797,242.464 374.620,242.600 374.400 C 242.736 374.180,243.456 374.000,244.200 374.000 C 244.944 374.000,245.664 373.820,245.800 373.600 C 245.936 373.380,246.397 373.200,246.824 373.200 C 247.251 373.200,247.600 373.020,247.600 372.800 C 247.600 372.580,248.230 372.400,249.000 372.400 C 249.770 372.400,250.400 372.220,250.400 372.000 C 250.400 371.780,251.210 371.600,252.200 371.600 C 253.190 371.600,254.000 371.420,254.000 371.200 C 254.000 370.980,254.360 370.800,254.800 370.800 C 255.240 370.800,255.600 370.620,255.600 370.400 C 255.600 370.180,255.791 370.000,256.024 370.000 C 256.257 370.000,256.346 370.163,256.223 370.363 C 256.100 370.562,256.448 370.517,256.996 370.263 C 257.545 370.008,257.995 369.665,257.997 369.500 C 257.999 369.335,258.540 369.200,259.200 369.200 C 259.860 369.200,260.400 369.020,260.400 368.800 C 260.400 368.580,260.940 368.400,261.600 368.400 C 262.260 368.400,262.800 368.220,262.800 368.000 C 262.800 367.780,263.214 367.600,263.720 367.600 C 264.774 367.600,266.792 366.747,266.797 366.300 C 266.799 366.135,267.340 366.000,268.000 366.000 C 268.660 366.000,269.200 365.820,269.200 365.600 C 269.200 365.380,269.616 365.200,270.125 365.200 C 270.633 365.200,271.436 364.840,271.908 364.400 C 272.380 363.960,273.224 363.600,273.783 363.600 C 274.342 363.600,274.800 363.420,274.800 363.200 C 274.800 362.980,275.160 362.800,275.600 362.800 C 276.040 362.800,276.400 362.620,276.400 362.400 C 276.400 362.180,276.760 362.000,277.200 362.000 C 277.640 362.000,278.000 361.820,278.000 361.600 C 278.000 361.380,278.360 361.200,278.800 361.200 C 279.240 361.200,279.600 361.020,279.600 360.800 C 279.600 360.580,279.960 360.400,280.400 360.400 C 280.840 360.400,281.200 360.220,281.200 360.000 C 281.200 359.780,281.520 359.600,281.912 359.600 C 282.303 359.600,282.883 359.240,283.200 358.800 C 283.517 358.360,284.097 358.000,284.488 358.000 C 284.880 358.000,285.200 357.820,285.200 357.600 C 285.200 357.380,285.616 357.200,286.125 357.200 C 286.633 357.200,287.436 356.840,287.908 356.400 C 288.380 355.960,289.004 355.600,289.295 355.600 C 289.586 355.600,290.083 355.240,290.400 354.800 C 290.717 354.360,291.297 354.000,291.688 354.000 C 292.080 354.000,292.400 353.820,292.400 353.600 C 292.400 353.380,292.760 353.200,293.200 353.200 C 293.640 353.200,294.000 353.020,294.000 352.800 C 294.000 352.580,294.243 352.400,294.541 352.400 C 294.838 352.400,295.646 351.860,296.337 351.200 C 297.028 350.540,297.864 350.000,298.196 350.000 C 298.528 350.000,298.800 349.820,298.800 349.600 C 298.800 349.380,299.120 349.200,299.512 349.200 C 299.903 349.200,300.483 348.840,300.800 348.400 C 301.117 347.960,301.562 347.600,301.788 347.599 C 302.015 347.599,302.830 347.059,303.600 346.400 C 304.370 345.741,305.153 345.201,305.340 345.201 C 305.526 345.200,306.183 344.660,306.800 344.000 C 307.417 343.340,308.137 342.800,308.400 342.800 C 308.663 342.800,309.383 342.260,310.000 341.600 C 310.617 340.940,311.298 340.400,311.515 340.400 C 311.732 340.400,313.030 339.320,314.400 338.000 C 315.770 336.680,317.061 335.600,317.269 335.600 C 317.808 335.600,336.400 316.938,336.400 316.397 C 336.400 316.150,337.300 315.071,338.400 314.000 C 339.500 312.929,340.400 311.860,340.400 311.626 C 340.400 311.392,341.120 310.459,342.000 309.552 C 342.880 308.645,343.600 307.744,343.600 307.548 C 343.600 307.353,344.140 306.628,344.800 305.937 C 345.460 305.246,346.000 304.438,346.000 304.141 C 346.000 303.843,346.180 303.600,346.400 303.600 C 346.620 303.600,346.800 303.332,346.800 303.003 C 346.800 302.675,347.340 301.891,348.000 301.260 C 348.660 300.629,349.200 299.858,349.200 299.545 C 349.200 299.232,349.560 298.717,350.000 298.400 C 350.440 298.083,350.800 297.503,350.800 297.112 C 350.800 296.720,350.980 296.400,351.200 296.400 C 351.420 296.400,351.600 296.080,351.600 295.688 C 351.600 295.297,351.960 294.717,352.400 294.400 C 352.840 294.083,353.200 293.543,353.200 293.200 C 353.200 292.857,353.560 292.317,354.000 292.000 C 354.440 291.683,354.800 291.103,354.800 290.712 C 354.800 290.320,354.980 290.000,355.200 290.000 C 355.420 290.000,355.600 289.722,355.600 289.383 C 355.600 289.044,355.960 288.380,356.400 287.908 C 356.840 287.436,357.200 286.673,357.200 286.213 C 357.200 285.753,357.560 285.117,358.000 284.800 C 358.440 284.483,358.800 283.903,358.800 283.512 C 358.800 283.120,358.980 282.800,359.200 282.800 C 359.420 282.800,359.600 282.440,359.600 282.000 C 359.600 281.560,359.780 281.200,360.000 281.200 C 360.220 281.200,360.400 280.840,360.400 280.400 C 360.400 279.960,360.580 279.600,360.800 279.600 C 361.020 279.600,361.200 279.240,361.200 278.800 C 361.200 278.360,361.380 278.000,361.600 278.000 C 361.820 278.000,362.000 277.542,362.000 276.983 C 362.000 276.424,362.360 275.580,362.800 275.108 C 363.240 274.636,363.600 273.833,363.600 273.325 C 363.600 272.816,363.780 272.400,364.000 272.400 C 364.220 272.400,364.400 272.040,364.400 271.600 C 364.400 271.160,364.580 270.800,364.800 270.800 C 365.020 270.800,365.200 270.528,365.200 270.195 C 365.200 269.862,365.359 269.277,365.553 268.895 C 365.748 268.513,366.129 267.660,366.400 267.000 C 366.671 266.340,367.052 265.487,367.247 265.105 C 367.441 264.723,367.600 264.048,367.600 263.605 C 367.600 263.162,367.780 262.800,368.000 262.800 C 368.220 262.800,368.400 262.260,368.400 261.600 C 368.400 260.940,368.580 260.400,368.800 260.400 C 369.020 260.400,369.200 260.051,369.200 259.624 C 369.200 259.197,369.380 258.736,369.600 258.600 C 369.820 258.464,370.000 257.924,370.000 257.400 C 370.000 256.876,370.180 256.336,370.400 256.200 C 370.620 256.064,370.800 255.524,370.800 255.000 C 370.800 254.476,370.980 253.936,371.200 253.800 C 371.420 253.664,371.600 252.753,371.600 251.776 C 371.600 250.799,371.780 250.000,372.000 250.000 C 372.220 250.000,372.400 249.460,372.400 248.800 C 372.400 248.140,372.580 247.600,372.800 247.600 C 373.020 247.600,373.200 246.880,373.200 246.000 C 373.200 245.120,373.380 244.400,373.600 244.400 C 373.820 244.400,374.000 244.076,374.000 243.680 C 374.000 243.284,374.225 242.718,374.500 242.421 C 374.900 241.990,374.900 241.939,374.500 242.165 C 373.901 242.503,373.803 241.369,374.400 241.000 C 374.620 240.864,374.800 240.033,374.800 239.153 C 374.800 238.188,374.959 237.651,375.200 237.800 C 375.431 237.943,375.600 237.564,375.600 236.904 C 375.600 236.275,375.825 235.518,376.100 235.221 C 376.500 234.790,376.500 234.739,376.100 234.965 C 375.770 235.151,375.600 234.966,375.600 234.424 C 375.600 233.971,375.780 233.600,376.000 233.600 C 376.222 233.600,376.400 232.544,376.400 231.233 C 376.400 229.883,376.587 228.804,376.835 228.722 C 377.095 228.635,377.263 227.488,377.250 225.888 C 377.239 224.410,377.403 223.200,377.615 223.200 C 377.827 223.200,378.000 222.401,378.000 221.424 C 378.000 220.447,378.180 219.536,378.400 219.400 C 378.620 219.264,378.797 218.938,378.794 218.676 C 378.790 218.390,378.633 218.439,378.400 218.800 C 378.112 219.246,378.011 219.016,378.006 217.900 C 378.003 217.075,378.180 216.400,378.400 216.400 C 378.660 216.400,378.800 210.600,378.800 199.800 C 378.800 189.000,378.660 183.200,378.400 183.200 C 378.180 183.200,378.000 182.829,378.000 182.376 C 378.000 181.923,378.180 181.664,378.400 181.800 C 378.620 181.936,378.800 181.777,378.800 181.447 C 378.800 181.117,378.620 180.736,378.400 180.600 C 378.180 180.464,378.000 179.373,378.000 178.176 C 378.000 176.979,377.820 176.000,377.600 176.000 C 377.380 176.000,377.200 175.539,377.200 174.976 C 377.200 174.274,377.357 174.041,377.700 174.235 C 378.100 174.461,378.100 174.410,377.700 173.979 C 377.425 173.682,377.200 172.756,377.200 171.920 C 377.200 171.084,377.020 170.400,376.800 170.400 C 376.577 170.400,376.400 169.325,376.400 167.976 C 376.400 166.463,376.250 165.646,376.000 165.800 C 375.753 165.952,375.600 165.271,375.600 164.024 C 375.600 162.911,375.420 162.000,375.200 162.000 C 374.980 162.000,374.803 161.685,374.806 161.300 C 374.811 160.702,374.869 160.687,375.200 161.200 C 375.433 161.561,375.590 161.610,375.594 161.324 C 375.597 161.062,375.420 160.736,375.200 160.600 C 374.980 160.464,374.800 159.813,374.800 159.153 C 374.800 158.455,374.633 158.056,374.400 158.200 C 374.180 158.336,374.000 158.257,374.000 158.024 C 374.000 157.791,374.216 157.600,374.480 157.600 C 374.853 157.600,374.853 157.493,374.480 157.120 C 374.216 156.856,374.000 156.215,374.000 155.696 C 374.000 155.169,373.823 154.862,373.600 155.000 C 373.362 155.147,373.200 154.671,373.200 153.824 C 373.200 153.041,373.020 152.400,372.800 152.400 C 372.580 152.400,372.400 151.680,372.400 150.800 C 372.400 149.920,372.220 149.200,372.000 149.200 C 371.780 149.200,371.600 149.009,371.600 148.776 C 371.600 148.543,371.784 148.467,372.010 148.606 C 372.235 148.745,372.055 148.211,371.610 147.418 C 370.792 145.962,370.482 144.889,371.200 146.000 C 371.413 146.330,371.591 146.409,371.594 146.175 C 371.597 145.942,371.240 145.364,370.800 144.892 C 369.956 143.986,369.700 142.967,370.430 143.418 C 370.666 143.564,370.622 143.305,370.333 142.842 C 370.044 142.379,369.671 142.000,369.504 142.000 C 369.337 142.000,369.200 141.719,369.200 141.376 C 369.200 140.994,369.393 140.862,369.700 141.035 C 370.100 141.261,370.100 141.210,369.700 140.779 C 369.425 140.482,369.197 139.871,369.194 139.420 C 369.189 138.744,369.120 138.705,368.800 139.200 C 368.506 139.655,368.411 139.486,368.406 138.500 C 368.403 137.785,368.220 137.200,368.000 137.200 C 367.780 137.200,367.600 136.660,367.600 136.000 C 367.600 135.340,367.420 134.800,367.200 134.800 C 366.980 134.800,366.800 134.260,366.800 133.600 C 366.800 132.940,366.620 132.400,366.400 132.400 C 366.180 132.400,366.000 131.961,366.000 131.424 C 366.000 130.887,365.820 130.336,365.600 130.200 C 365.380 130.064,365.200 129.603,365.200 129.176 C 365.200 128.749,365.020 128.400,364.800 128.400 C 364.580 128.400,364.400 128.040,364.400 127.600 C 364.400 127.160,364.220 126.800,364.000 126.800 C 363.780 126.800,363.600 126.440,363.600 126.000 C 363.600 125.560,363.420 125.200,363.200 125.200 C 362.980 125.200,362.801 124.885,362.803 124.500 C 362.806 123.600,358.798 115.600,358.343 115.600 C 358.155 115.600,358.000 115.366,358.000 115.080 C 358.000 114.344,357.059 112.407,356.700 112.403 C 356.535 112.401,356.400 112.040,356.400 111.600 C 356.400 111.160,356.220 110.800,356.000 110.800 C 355.780 110.800,355.600 110.519,355.600 110.176 C 355.600 109.833,355.416 109.667,355.190 109.806 C 354.965 109.945,354.825 109.911,354.879 109.730 C 355.021 109.260,353.865 106.800,353.502 106.800 C 353.336 106.800,353.200 106.564,353.200 106.275 C 353.200 105.987,352.840 105.364,352.400 104.892 C 351.960 104.420,351.600 103.828,351.600 103.577 C 351.600 103.326,351.060 102.617,350.400 102.000 C 349.740 101.383,349.200 100.631,349.200 100.328 C 349.200 100.025,348.840 99.517,348.400 99.200 C 347.960 98.883,347.600 98.305,347.600 97.915 C 347.600 97.526,347.240 96.982,346.800 96.707 C 346.360 96.432,346.000 95.891,346.000 95.504 C 346.000 95.117,345.820 94.800,345.600 94.800 C 345.380 94.800,345.200 94.557,345.200 94.259 C 345.200 93.962,344.660 93.154,344.000 92.463 C 343.340 91.772,342.800 91.052,342.800 90.863 C 342.800 90.674,342.303 89.997,341.696 89.359 C 341.088 88.722,340.149 87.570,339.609 86.800 C 339.068 86.030,337.980 84.770,337.191 84.000 C 336.401 83.230,335.636 82.285,335.490 81.900 C 335.344 81.515,334.949 81.200,334.613 81.200 C 334.267 81.200,334.000 80.852,334.000 80.400 C 334.000 79.867,333.733 79.600,333.200 79.600 C 332.754 79.600,332.400 79.333,332.400 78.997 C 332.400 78.209,320.191 66.000,319.403 66.000 C 319.071 66.000,318.800 65.724,318.800 65.387 C 318.800 65.051,318.485 64.657,318.100 64.512 C 317.715 64.367,316.923 63.743,316.340 63.125 C 315.756 62.506,315.070 62.000,314.814 62.000 C 314.558 62.000,313.505 61.140,312.474 60.089 C 311.443 59.038,309.970 57.738,309.200 57.200 C 308.430 56.662,307.451 55.902,307.025 55.511 C 306.598 55.120,306.013 54.800,305.725 54.800 C 305.436 54.800,305.200 54.620,305.200 54.400 C 305.200 54.180,304.840 54.000,304.400 54.000 C 303.948 54.000,303.600 53.733,303.600 53.387 C 303.600 53.051,303.285 52.655,302.900 52.508 C 302.515 52.361,301.851 51.916,301.425 51.520 C 300.998 51.124,300.413 50.800,300.125 50.800 C 299.836 50.800,299.600 50.650,299.600 50.468 C 299.600 50.285,299.105 49.880,298.500 49.568 C 297.895 49.255,297.051 48.685,296.625 48.300 C 296.198 47.915,295.476 47.600,295.021 47.600 C 294.565 47.600,293.968 47.240,293.693 46.800 C 293.418 46.360,292.874 46.000,292.485 46.000 C 292.095 46.000,291.517 45.640,291.200 45.200 C 290.883 44.760,290.438 44.396,290.212 44.391 C 289.985 44.386,289.350 44.030,288.800 43.600 C 288.250 43.170,287.435 42.814,286.988 42.809 C 286.542 42.804,285.917 42.440,285.600 42.000 C 285.283 41.560,284.703 41.200,284.312 41.200 C 283.920 41.200,283.600 41.020,283.600 40.800 C 283.600 40.580,283.255 40.400,282.833 40.400 C 282.412 40.400,282.007 40.265,281.933 40.100 C 281.741 39.668,278.428 38.000,277.762 38.000 C 277.453 38.000,277.200 37.820,277.200 37.600 C 277.200 37.380,276.840 37.200,276.400 37.200 C 275.960 37.200,275.600 37.020,275.600 36.800 C 275.600 36.580,275.060 36.400,274.400 36.400 C 273.740 36.400,273.200 36.220,273.200 36.000 C 273.200 35.780,272.840 35.600,272.400 35.600 C 271.960 35.600,271.600 35.420,271.600 35.200 C 271.600 34.980,271.240 34.800,270.800 34.800 C 270.360 34.800,270.000 34.620,270.000 34.400 C 270.000 34.180,269.460 34.000,268.800 34.000 C 268.140 34.000,267.600 33.820,267.600 33.600 C 267.600 33.380,267.139 33.200,266.576 33.200 C 265.996 33.200,265.660 33.027,265.800 32.800 C 265.944 32.567,265.537 32.400,264.824 32.400 C 264.151 32.400,263.600 32.220,263.600 32.000 C 263.600 31.780,263.240 31.600,262.800 31.600 C 262.360 31.600,262.000 31.420,262.000 31.200 C 262.000 30.980,261.359 30.800,260.576 30.800 C 259.729 30.800,259.253 30.638,259.400 30.400 C 259.547 30.162,259.071 30.000,258.224 30.000 C 257.441 30.000,256.800 29.820,256.800 29.600 C 256.800 29.380,256.260 29.200,255.600 29.200 C 254.940 29.200,254.400 29.020,254.400 28.800 C 254.400 28.580,253.770 28.400,253.000 28.400 C 252.230 28.400,251.600 28.220,251.600 28.000 C 251.600 27.780,250.970 27.600,250.200 27.600 C 249.430 27.600,248.800 27.420,248.800 27.200 C 248.800 26.980,248.170 26.800,247.400 26.800 C 246.630 26.800,246.000 26.620,246.000 26.400 C 246.000 26.180,245.280 26.000,244.400 26.000 C 243.520 26.000,242.800 25.820,242.800 25.600 C 242.800 25.380,241.990 25.200,241.000 25.200 C 240.010 25.200,239.199 25.065,239.197 24.900 C 239.195 24.735,238.745 24.392,238.196 24.137 C 237.648 23.883,237.300 23.838,237.423 24.037 C 237.546 24.237,237.187 24.400,236.624 24.400 C 236.061 24.400,235.600 24.220,235.600 24.000 C 235.600 23.780,234.711 23.600,233.624 23.600 C 232.537 23.600,231.536 23.420,231.400 23.200 C 231.264 22.980,230.724 22.800,230.200 22.800 C 229.676 22.800,229.136 22.620,229.000 22.400 C 228.864 22.180,228.538 22.003,228.276 22.006 C 227.990 22.010,228.039 22.167,228.400 22.400 C 228.889 22.716,228.840 22.789,228.133 22.794 C 227.657 22.797,227.207 22.633,227.133 22.428 C 227.060 22.223,225.708 22.004,224.130 21.942 C 222.551 21.879,221.347 21.686,221.453 21.514 C 221.560 21.341,221.356 21.200,221.000 21.200 C 220.644 21.200,220.464 21.380,220.600 21.600 C 220.736 21.820,220.466 22.000,220.000 22.000 C 219.534 22.000,219.264 21.820,219.400 21.600 C 219.564 21.335,212.937 21.200,199.824 21.200 C 186.875 21.200,180.000 21.339,180.000 21.600 M143.400 130.041 C 154.140 131.116,176.562 137.567,178.106 140.026 C 178.479 140.621,167.615 168.837,166.586 169.946 C 166.161 170.404,165.408 170.217,161.940 168.791 C 138.084 158.989,120.176 158.835,117.597 168.411 C 115.929 174.607,119.558 177.613,140.693 187.539 C 168.984 200.826,176.361 208.690,178.413 227.751 C 180.733 249.295,168.171 267.540,146.015 274.810 C 126.625 281.172,91.556 278.378,77.700 269.367 L 76.800 268.782 76.800 251.634 C 76.800 231.900,76.474 233.222,80.802 235.401 C 98.013 244.068,123.492 248.418,132.600 244.244 C 138.769 241.418,140.623 235.578,137.037 230.276 C 135.301 227.710,130.811 225.144,116.860 218.746 C 90.427 206.624,81.535 197.879,78.583 181.105 C 72.541 146.773,99.368 125.638,143.400 130.041 M284.343 131.500 C 284.692 132.159,288.180 142.647,298.478 174.000 C 300.898 181.370,303.565 189.470,304.405 192.000 C 305.244 194.530,309.925 208.750,314.808 223.600 C 319.690 238.450,325.550 256.263,327.830 263.184 C 330.891 272.476,331.847 275.849,331.487 276.078 C 330.568 276.662,289.353 276.467,288.863 275.876 C 288.439 275.365,287.553 272.172,283.734 257.400 C 282.711 253.440,281.700 249.975,281.488 249.700 C 281.187 249.310,276.089 249.200,258.400 249.200 L 235.697 249.200 235.256 250.300 C 235.014 250.905,234.562 252.390,234.253 253.600 C 233.386 256.996,230.015 269.470,229.118 272.600 C 228.677 274.140,228.133 275.625,227.909 275.900 C 227.290 276.660,185.262 276.626,184.970 275.866 C 184.857 275.572,185.027 274.537,185.348 273.566 C 185.871 271.980,191.576 254.417,198.069 234.400 C 199.389 230.330,200.800 226.010,201.205 224.800 C 201.609 223.590,203.947 216.390,206.400 208.800 C 208.853 201.210,211.191 194.010,211.595 192.800 C 212.000 191.590,213.411 187.270,214.731 183.200 C 230.473 134.675,231.254 132.290,231.664 131.500 C 232.005 130.844,233.670 130.800,258.000 130.800 C 282.327 130.800,283.995 130.844,284.343 131.500 M256.637 165.110 C 255.297 171.372,250.284 191.742,247.459 202.400 C 244.750 212.622,244.000 215.563,244.000 215.964 C 244.000 216.271,248.335 216.400,258.627 216.400 C 272.370 216.400,273.241 216.358,273.046 215.700 C 272.932 215.315,272.207 212.570,271.435 209.600 C 270.020 204.151,268.484 198.301,265.868 188.400 C 263.297 178.669,261.599 171.907,260.006 165.052 C 259.144 161.341,258.374 158.241,258.296 158.162 C 258.217 158.084,257.471 161.210,256.637 165.110 " stroke="none" fill="#040404" fill-rule="evenodd"></path><path id="path2" d="M176.400 21.501 C 176.400 21.682,176.976 21.874,177.679 21.927 C 178.383 21.981,178.826 21.892,178.664 21.731 C 178.235 21.301,176.400 21.115,176.400 21.501 M127.305 129.887 C 127.914 129.979,128.814 129.977,129.305 129.882 C 129.797 129.787,129.300 129.711,128.200 129.714 C 127.100 129.717,126.697 129.795,127.305 129.887 M135.900 129.882 C 136.395 129.978,137.205 129.978,137.700 129.882 C 138.195 129.787,137.790 129.709,136.800 129.709 C 135.810 129.709,135.405 129.787,135.900 129.882 M132.900 161.076 C 133.285 161.176,133.915 161.176,134.300 161.076 C 134.685 160.975,134.370 160.893,133.600 160.893 C 132.830 160.893,132.515 160.975,132.900 161.076 M378.880 196.000 C 378.814 197.100,378.928 198.000,379.134 198.000 C 379.339 198.000,379.508 197.100,379.508 196.000 C 379.508 193.405,379.036 193.405,378.880 196.000 M378.800 202.624 C 378.800 203.407,378.950 203.955,379.133 203.841 C 379.449 203.646,379.283 201.200,378.955 201.200 C 378.870 201.200,378.800 201.841,378.800 202.624 M118.100 246.276 C 118.485 246.376,119.115 246.376,119.500 246.276 C 119.885 246.175,119.570 246.093,118.800 246.093 C 118.030 246.093,117.715 246.175,118.100 246.276 M243.600 249.091 C 264.738 249.368,281.907 249.372,281.738 249.100 C 281.636 248.935,271.168 248.841,258.476 248.891 C 245.784 248.942,239.090 249.031,243.600 249.091 M113.700 277.876 C 114.085 277.976,114.715 277.976,115.100 277.876 C 115.485 277.775,115.170 277.693,114.400 277.693 C 113.630 277.693,113.315 277.775,113.700 277.876 M179.720 378.254 C 180.135 378.669,182.000 378.760,182.000 378.365 C 182.000 378.164,181.430 378.000,180.733 378.000 C 180.037 378.000,179.581 378.114,179.720 378.254 M217.881 378.441 C 218.198 378.758,218.532 378.761,219.061 378.454 C 219.709 378.077,219.654 378.023,218.620 378.012 C 217.759 378.003,217.560 378.120,217.881 378.441 " stroke="none" fill="#7c7c7c" fill-rule="evenodd"></path><path id="path3" d="M178.600 21.600 C 178.736 21.820,179.107 22.000,179.424 22.000 C 179.741 22.000,180.000 21.820,180.000 21.600 C 180.000 21.380,179.629 21.200,179.176 21.200 C 178.723 21.200,178.464 21.380,178.600 21.600 M219.400 21.600 C 219.264 21.820,219.534 22.000,220.000 22.000 C 220.466 22.000,220.736 21.820,220.600 21.600 C 220.464 21.380,220.194 21.200,220.000 21.200 C 219.806 21.200,219.536 21.380,219.400 21.600 M171.000 22.400 C 171.136 22.620,171.597 22.800,172.024 22.800 C 172.451 22.800,172.800 22.620,172.800 22.400 C 172.800 22.180,172.339 22.000,171.776 22.000 C 171.196 22.000,170.860 22.173,171.000 22.400 M227.200 22.400 C 227.200 22.620,227.605 22.797,228.100 22.794 C 228.828 22.789,228.885 22.714,228.400 22.400 C 227.624 21.899,227.200 21.899,227.200 22.400 M167.038 23.445 C 166.857 23.916,166.962 24.024,167.428 23.845 C 167.779 23.710,168.141 23.600,168.233 23.600 C 168.325 23.600,168.400 23.420,168.400 23.200 C 168.400 22.548,167.307 22.745,167.038 23.445 M162.600 24.000 C 162.736 24.220,163.107 24.400,163.424 24.400 C 163.741 24.400,164.000 24.220,164.000 24.000 C 164.000 23.780,163.629 23.600,163.176 23.600 C 162.723 23.600,162.464 23.780,162.600 24.000 M235.600 24.000 C 235.600 24.220,236.061 24.400,236.624 24.400 C 237.204 24.400,237.540 24.227,237.400 24.000 C 237.264 23.780,236.803 23.600,236.376 23.600 C 235.949 23.600,235.600 23.780,235.600 24.000 M155.600 25.600 C 155.600 25.820,155.870 26.000,156.200 26.000 C 156.530 26.000,156.800 25.820,156.800 25.600 C 156.800 25.380,156.530 25.200,156.200 25.200 C 155.870 25.200,155.600 25.380,155.600 25.600 M242.800 25.575 C 242.800 25.781,243.148 25.924,243.572 25.892 C 243.997 25.860,244.256 25.691,244.149 25.517 C 243.875 25.073,242.800 25.120,242.800 25.575 M149.451 27.117 C 149.344 27.291,149.603 27.460,150.028 27.492 C 150.452 27.524,150.800 27.381,150.800 27.175 C 150.800 26.720,149.725 26.673,149.451 27.117 M248.800 27.200 C 248.800 27.420,249.070 27.600,249.400 27.600 C 249.730 27.600,250.000 27.420,250.000 27.200 C 250.000 26.980,249.730 26.800,249.400 26.800 C 249.070 26.800,248.800 26.980,248.800 27.200 M131.507 129.490 C 132.226 129.579,133.306 129.577,133.907 129.486 C 134.508 129.395,133.920 129.322,132.600 129.324 C 131.280 129.326,130.788 129.401,131.507 129.490 M121.600 130.000 C 119.401 130.270,119.401 130.270,121.200 130.305 C 122.190 130.325,123.810 130.197,124.800 130.020 C 127.146 129.603,124.953 129.589,121.600 130.000 M140.000 130.002 C 141.832 130.347,145.470 130.522,145.167 130.251 C 145.075 130.170,143.470 130.004,141.600 129.883 C 139.130 129.724,138.692 129.757,140.000 130.002 M116.000 130.800 C 114.643 131.086,114.637 131.095,115.800 131.107 C 116.460 131.115,117.450 130.976,118.000 130.800 C 119.312 130.380,117.996 130.380,116.000 130.800 M147.000 130.800 C 147.660 130.968,148.740 131.106,149.400 131.107 C 150.409 131.108,150.345 131.055,149.000 130.777 C 146.974 130.358,145.337 130.377,147.000 130.800 M231.582 131.634 C 231.336 132.093,231.223 132.557,231.331 132.664 C 231.439 132.772,231.646 132.487,231.790 132.030 C 232.054 131.201,232.091 131.200,257.978 131.200 L 283.903 131.200 284.334 132.300 C 284.571 132.905,285.066 134.352,285.434 135.516 C 285.801 136.679,286.171 137.563,286.255 137.479 C 286.442 137.291,285.005 132.731,284.406 131.612 C 283.711 130.313,232.277 130.335,231.582 131.634 M112.200 131.600 C 111.111 131.877,111.093 131.907,112.000 131.925 C 112.550 131.935,113.360 131.789,113.800 131.600 C 114.786 131.176,113.866 131.176,112.200 131.600 M151.800 131.581 C 152.568 131.929,154.710 132.156,154.367 131.853 C 154.275 131.772,153.480 131.596,152.600 131.462 C 151.485 131.293,151.242 131.329,151.800 131.581 M109.200 132.400 C 108.376 132.664,108.341 132.726,109.000 132.754 C 109.440 132.773,110.070 132.613,110.400 132.400 C 111.101 131.947,110.614 131.947,109.200 132.400 M155.600 132.394 C 155.930 132.611,156.635 132.791,157.167 132.794 C 158.451 132.802,158.125 132.575,156.400 132.258 C 155.415 132.077,155.178 132.118,155.600 132.394 M158.800 133.182 C 159.130 133.405,159.745 133.591,160.167 133.594 C 161.190 133.602,160.871 133.373,159.400 133.044 C 158.524 132.848,158.362 132.885,158.800 133.182 M161.600 133.982 C 161.930 134.205,162.545 134.391,162.967 134.394 C 163.990 134.402,163.671 134.173,162.200 133.844 C 161.324 133.648,161.162 133.685,161.600 133.982 M101.800 135.178 C 100.920 135.595,100.313 135.950,100.451 135.968 C 100.840 136.018,103.600 134.814,103.600 134.595 C 103.600 134.327,103.599 134.327,101.800 135.178 M98.175 136.939 C 95.467 138.488,91.803 141.071,91.196 141.858 C 90.767 142.415,90.871 142.386,91.612 141.743 C 92.440 141.025,94.563 139.611,99.446 136.524 C 100.789 135.675,99.848 135.982,98.175 136.939 M170.200 136.771 C 171.080 137.194,172.070 137.547,172.400 137.555 C 173.086 137.571,171.039 136.627,169.574 136.251 C 169.038 136.114,169.320 136.348,170.200 136.771 M173.200 137.789 C 173.200 138.106,176.100 139.233,176.328 139.005 C 176.441 138.892,176.435 138.800,176.316 138.800 C 176.196 138.800,175.446 138.528,174.649 138.195 C 173.852 137.862,173.200 137.679,173.200 137.789 M177.324 139.646 C 177.871 139.964,177.995 140.378,177.829 141.334 L 177.609 142.600 178.043 141.487 C 178.496 140.320,178.002 139.187,177.051 139.212 C 176.803 139.219,176.926 139.414,177.324 139.646 M88.574 144.107 L 87.000 145.799 88.596 144.399 C 89.473 143.630,90.268 142.955,90.362 142.900 C 90.456 142.845,90.447 142.713,90.341 142.607 C 90.235 142.501,89.440 143.176,88.574 144.107 M226.846 145.667 C 226.821 146.034,226.696 146.664,226.570 147.067 C 226.352 147.762,226.363 147.763,226.797 147.087 C 227.048 146.696,227.173 146.066,227.073 145.687 C 226.911 145.068,226.888 145.066,226.846 145.667 M86.130 146.900 C 84.922 148.242,82.193 152.400,82.520 152.400 C 82.612 152.400,83.365 151.365,84.194 150.100 C 85.023 148.835,86.070 147.395,86.520 146.900 C 86.971 146.405,87.249 146.000,87.139 146.000 C 87.029 146.000,86.575 146.405,86.130 146.900 M257.879 157.454 C 257.726 157.608,257.618 158.198,257.640 158.767 L 257.680 159.800 257.982 158.800 L 258.285 157.800 258.578 159.000 C 259.041 160.902,259.136 161.066,259.154 160.000 C 259.175 158.828,258.284 157.049,257.879 157.454 M79.646 158.867 C 79.621 159.234,79.496 159.864,79.370 160.267 C 79.152 160.962,79.163 160.963,79.597 160.287 C 79.848 159.896,79.973 159.266,79.873 158.887 C 79.711 158.268,79.688 158.266,79.646 158.867 M221.493 162.293 C 221.120 163.533,220.881 164.614,220.963 164.696 C 221.045 164.778,221.427 163.841,221.813 162.613 C 222.199 161.386,222.438 160.305,222.344 160.211 C 222.250 160.116,221.867 161.054,221.493 162.293 M257.056 161.284 C 256.921 161.788,256.827 162.560,256.846 163.000 C 256.865 163.440,257.045 163.098,257.246 162.240 C 257.636 160.578,257.470 159.740,257.056 161.284 M130.500 161.076 C 130.885 161.176,131.515 161.176,131.900 161.076 C 132.285 160.975,131.970 160.893,131.200 160.893 C 130.430 160.893,130.115 160.975,130.500 161.076 M127.505 161.483 C 128.002 161.579,128.722 161.575,129.105 161.475 C 129.487 161.375,129.080 161.296,128.200 161.301 C 127.320 161.305,127.007 161.387,127.505 161.483 M133.705 161.487 C 134.314 161.579,135.214 161.577,135.705 161.482 C 136.197 161.387,135.700 161.311,134.600 161.314 C 133.500 161.317,133.097 161.395,133.705 161.487 M259.462 162.600 C 259.596 163.480,259.772 164.275,259.853 164.367 C 260.156 164.710,259.929 162.568,259.581 161.800 C 259.329 161.242,259.293 161.485,259.462 162.600 M138.305 161.883 C 138.802 161.979,139.522 161.975,139.905 161.875 C 140.287 161.775,139.880 161.696,139.000 161.701 C 138.120 161.705,137.807 161.787,138.305 161.883 M294.425 162.325 C 294.392 163.014,295.658 166.875,295.853 166.680 C 295.936 166.597,295.654 165.466,295.227 164.165 C 294.800 162.864,294.439 162.036,294.425 162.325 M142.833 162.543 C 142.925 162.621,143.630 162.801,144.400 162.942 C 145.385 163.123,145.622 163.082,145.200 162.806 C 144.658 162.450,142.437 162.203,142.833 162.543 M119.914 164.130 C 118.596 165.351,117.426 167.159,117.746 167.479 C 117.886 167.619,118.000 167.519,118.000 167.258 C 118.000 166.996,118.743 165.976,119.651 164.991 C 121.418 163.074,121.562 162.602,119.914 164.130 M146.033 163.343 C 146.125 163.421,146.830 163.601,147.600 163.742 C 148.585 163.923,148.822 163.882,148.400 163.606 C 147.858 163.250,145.637 163.003,146.033 163.343 M256.256 164.884 C 256.121 165.388,256.027 166.160,256.046 166.600 C 256.065 167.040,256.245 166.698,256.446 165.840 C 256.836 164.178,256.670 163.340,256.256 164.884 M152.800 165.266 C 154.338 165.905,156.139 166.406,155.847 166.114 C 155.517 165.783,152.735 164.806,152.200 164.831 C 151.980 164.842,152.250 165.038,152.800 165.266 M260.068 165.200 C 260.088 166.239,260.718 167.946,260.732 167.000 C 260.738 166.560,260.589 165.840,260.400 165.400 C 260.189 164.910,260.061 164.832,260.068 165.200 M78.164 172.200 C 78.163 175.940,78.223 177.524,78.297 175.720 C 78.371 173.915,78.372 170.855,78.298 168.920 C 78.225 166.984,78.164 168.460,78.164 172.200 M158.000 167.182 C 162.404 168.989,164.171 169.631,163.800 169.290 C 163.310 168.840,157.156 166.386,156.600 166.420 C 156.380 166.433,157.010 166.776,158.000 167.182 M22.800 168.200 C 22.800 168.530,22.980 168.800,23.200 168.800 C 23.420 168.800,23.600 168.530,23.600 168.200 C 23.600 167.870,23.420 167.600,23.200 167.600 C 22.980 167.600,22.800 167.870,22.800 168.200 M255.456 168.484 C 255.321 168.988,255.227 169.760,255.246 170.200 C 255.265 170.640,255.445 170.298,255.646 169.440 C 256.036 167.778,255.870 166.940,255.456 168.484 M116.993 169.300 C 116.859 170.015,116.903 171.012,117.089 171.515 C 117.344 172.202,117.429 171.879,117.429 170.215 C 117.429 167.670,117.335 167.473,116.993 169.300 M261.062 169.400 C 261.196 170.280,261.372 171.075,261.453 171.167 C 261.756 171.510,261.529 169.368,261.181 168.600 C 260.929 168.042,260.893 168.285,261.062 169.400 M166.646 169.425 C 166.462 169.905,166.093 170.022,165.296 169.853 C 164.244 169.631,164.237 169.640,165.117 170.079 C 166.020 170.530,167.735 169.602,167.126 168.992 C 167.001 168.868,166.785 169.062,166.646 169.425 M254.656 172.084 C 254.521 172.588,254.427 173.360,254.446 173.800 C 254.465 174.240,254.645 173.898,254.846 173.040 C 255.236 171.378,255.070 170.540,254.656 172.084 M261.858 172.800 C 262.175 174.525,262.402 174.851,262.394 173.567 C 262.391 173.035,262.211 172.330,261.994 172.000 C 261.718 171.578,261.677 171.815,261.858 172.800 M117.628 173.000 C 117.628 173.220,117.886 173.850,118.200 174.400 C 118.514 174.950,118.772 175.220,118.772 175.000 C 118.772 174.780,118.514 174.150,118.200 173.600 C 117.886 173.050,117.628 172.780,117.628 173.000 M253.849 175.415 C 253.712 175.773,253.618 176.456,253.641 176.933 C 253.667 177.481,253.803 177.286,254.010 176.403 C 254.360 174.916,254.265 174.333,253.849 175.415 M262.658 176.000 C 262.975 177.725,263.202 178.051,263.194 176.767 C 263.191 176.235,263.011 175.530,262.794 175.200 C 262.518 174.778,262.477 175.015,262.658 176.000 M216.446 177.667 C 216.421 178.034,216.296 178.664,216.170 179.067 C 215.952 179.762,215.963 179.763,216.397 179.087 C 216.648 178.696,216.773 178.066,216.673 177.687 C 216.511 177.068,216.488 177.066,216.446 177.667 M253.000 179.200 C 252.848 179.891,252.807 180.541,252.909 180.642 C 253.011 180.744,253.209 180.253,253.350 179.550 C 253.683 177.883,253.360 177.560,253.000 179.200 M263.444 179.000 C 263.773 180.471,264.002 180.790,263.994 179.767 C 263.991 179.345,263.805 178.730,263.582 178.400 C 263.285 177.962,263.248 178.124,263.444 179.000 M124.000 179.341 C 124.000 179.608,127.690 181.643,127.863 181.471 C 127.940 181.393,127.103 180.839,126.002 180.240 C 124.901 179.640,124.000 179.236,124.000 179.341 M78.672 181.400 C 78.799 182.500,78.969 183.475,79.051 183.567 C 79.332 183.882,79.120 181.399,78.780 180.400 C 78.551 179.726,78.516 180.051,78.672 181.400 M252.200 182.400 C 252.048 183.091,252.007 183.741,252.109 183.842 C 252.211 183.944,252.409 183.453,252.550 182.750 C 252.883 181.083,252.560 180.760,252.200 182.400 M264.244 182.200 C 264.573 183.671,264.802 183.990,264.794 182.967 C 264.791 182.545,264.605 181.930,264.382 181.600 C 264.085 181.162,264.048 181.324,264.244 182.200 M378.000 182.333 C 378.000 182.810,378.164 183.200,378.365 183.200 C 378.771 183.200,378.711 182.177,378.278 181.745 C 378.125 181.592,378.000 181.857,378.000 182.333 M264.868 184.400 C 264.888 185.439,265.518 187.146,265.532 186.200 C 265.538 185.760,265.389 185.040,265.200 184.600 C 264.989 184.110,264.861 184.032,264.868 184.400 M251.400 185.600 C 251.248 186.291,251.207 186.941,251.309 187.042 C 251.411 187.144,251.609 186.653,251.750 185.950 C 252.083 184.283,251.760 183.960,251.400 185.600 M136.400 185.765 C 136.400 185.967,140.768 188.008,141.148 187.984 C 141.482 187.963,139.398 186.842,137.728 186.144 C 136.998 185.839,136.400 185.668,136.400 185.765 M265.858 188.400 C 266.175 190.125,266.402 190.451,266.394 189.167 C 266.391 188.635,266.211 187.930,265.994 187.600 C 265.718 187.178,265.677 187.415,265.858 188.400 M144.400 189.600 C 145.170 190.022,145.980 190.366,146.200 190.366 C 146.420 190.366,145.970 190.022,145.200 189.600 C 144.430 189.178,143.620 188.834,143.400 188.834 C 143.180 188.834,143.630 189.178,144.400 189.600 M266.644 191.400 C 266.973 192.871,267.202 193.190,267.194 192.167 C 267.191 191.745,267.005 191.130,266.782 190.800 C 266.485 190.362,266.448 190.524,266.644 191.400 M249.849 191.415 C 249.712 191.773,249.618 192.456,249.641 192.933 C 249.667 193.481,249.803 193.286,250.010 192.403 C 250.360 190.916,250.265 190.333,249.849 191.415 M148.400 191.383 C 148.400 191.563,150.802 192.800,151.150 192.800 C 151.497 192.800,149.894 191.767,149.100 191.479 C 148.715 191.339,148.400 191.296,148.400 191.383 M211.093 194.293 C 210.720 195.533,210.481 196.614,210.563 196.696 C 210.645 196.778,211.027 195.841,211.413 194.613 C 211.799 193.386,212.038 192.305,211.944 192.211 C 211.850 192.116,211.467 193.054,211.093 194.293 M82.760 193.400 C 83.434 194.705,83.988 195.428,83.985 195.000 C 83.983 194.780,83.614 194.150,83.164 193.600 C 82.621 192.936,82.485 192.869,82.760 193.400 M267.444 194.200 C 267.773 195.671,268.002 195.990,267.994 194.967 C 267.991 194.545,267.805 193.930,267.582 193.600 C 267.285 193.162,267.248 193.324,267.444 194.200 M153.200 193.779 C 153.200 193.889,153.740 194.259,154.400 194.600 C 155.060 194.941,155.600 195.131,155.600 195.021 C 155.600 194.911,155.060 194.541,154.400 194.200 C 153.740 193.859,153.200 193.669,153.200 193.779 M304.825 193.925 C 304.792 194.614,306.058 198.475,306.253 198.280 C 306.336 198.197,306.054 197.066,305.627 195.765 C 305.200 194.464,304.839 193.636,304.825 193.925 M249.049 194.615 C 248.912 194.973,248.815 195.566,248.834 195.933 C 248.853 196.300,249.027 196.069,249.221 195.420 C 249.598 194.158,249.465 193.533,249.049 194.615 M156.200 195.473 C 156.995 196.250,162.894 200.076,162.626 199.641 C 162.474 199.396,161.146 198.417,159.675 197.466 C 156.526 195.431,155.631 194.918,156.200 195.473 M268.244 197.400 C 268.573 198.871,268.802 199.190,268.794 198.167 C 268.791 197.745,268.605 197.130,268.382 196.800 C 268.085 196.362,268.048 196.524,268.244 197.400 M85.996 198.394 C 86.690 199.271,87.467 200.118,87.723 200.276 C 87.978 200.434,87.493 199.716,86.645 198.681 C 85.797 197.647,85.020 196.800,84.918 196.800 C 84.816 196.800,85.301 197.518,85.996 198.394 M248.200 198.000 C 248.048 198.691,248.007 199.341,248.109 199.442 C 248.211 199.544,248.409 199.053,248.550 198.350 C 248.883 196.683,248.560 196.360,248.200 198.000 M378.989 200.439 C 379.201 203.781,379.600 203.930,379.600 200.667 C 379.600 199.200,379.428 198.000,379.217 198.000 C 378.997 198.000,378.900 199.042,378.989 200.439 M165.670 202.311 C 166.926 203.472,168.887 205.452,170.028 206.711 C 171.172 207.973,171.555 208.282,170.882 207.400 C 169.654 205.790,165.694 201.873,164.194 200.785 C 163.750 200.463,164.415 201.150,165.670 202.311 M269.844 203.400 C 270.173 204.871,270.402 205.190,270.394 204.167 C 270.391 203.745,270.205 203.130,269.982 202.800 C 269.685 202.362,269.648 202.524,269.844 203.400 M92.339 204.766 C 93.295 205.653,95.545 207.339,97.339 208.514 C 101.361 211.149,101.600 211.292,101.600 211.062 C 101.600 210.960,100.156 209.951,98.391 208.819 C 96.626 207.687,94.151 205.949,92.891 204.958 C 90.652 203.195,90.639 203.191,92.339 204.766 M246.649 203.815 C 246.512 204.173,246.415 204.766,246.434 205.133 C 246.453 205.500,246.627 205.269,246.821 204.620 C 247.198 203.358,247.065 202.733,246.649 203.815 M379.199 203.600 C 378.842 204.708,378.862 206.105,379.223 205.234 C 379.443 204.703,379.542 204.073,379.443 203.834 C 379.344 203.595,379.234 203.490,379.199 203.600 M270.468 205.600 C 270.488 206.639,271.118 208.346,271.132 207.400 C 271.138 206.960,270.989 206.240,270.800 205.800 C 270.589 205.310,270.461 205.232,270.468 205.600 M245.800 207.200 C 245.648 207.891,245.607 208.541,245.709 208.642 C 245.811 208.744,246.009 208.253,246.150 207.550 C 246.291 206.847,246.331 206.198,246.241 206.108 C 246.150 206.017,245.952 206.509,245.800 207.200 M271.458 209.600 C 271.775 211.325,272.002 211.651,271.994 210.367 C 271.991 209.835,271.811 209.130,271.594 208.800 C 271.318 208.378,271.277 208.615,271.458 209.600 M206.046 209.667 C 206.021 210.034,205.896 210.664,205.770 211.067 C 205.552 211.762,205.563 211.763,205.997 211.087 C 206.248 210.696,206.373 210.066,206.273 209.687 C 206.111 209.068,206.088 209.066,206.046 209.667 M172.815 210.600 C 172.817 210.820,173.186 211.450,173.636 212.000 C 174.179 212.664,174.315 212.731,174.040 212.200 C 173.366 210.895,172.812 210.172,172.815 210.600 M272.244 212.600 C 272.573 214.071,272.802 214.390,272.794 213.367 C 272.791 212.945,272.605 212.330,272.382 212.000 C 272.085 211.562,272.048 211.724,272.244 212.600 M103.600 212.199 C 103.600 212.464,111.648 216.485,111.826 216.308 C 111.903 216.230,110.085 215.230,107.784 214.085 C 105.483 212.941,103.600 212.092,103.600 212.199 M244.249 213.015 C 244.112 213.373,244.015 213.966,244.034 214.333 C 244.053 214.700,244.227 214.469,244.421 213.820 C 244.798 212.558,244.665 211.933,244.249 213.015 M174.400 213.284 C 174.400 213.716,175.615 216.400,175.811 216.400 C 175.921 216.400,175.733 215.734,175.393 214.921 C 174.793 213.486,174.400 212.838,174.400 213.284 M273.001 215.300 L 273.215 216.400 258.637 216.400 C 245.089 216.400,244.046 216.351,243.876 215.700 C 243.738 215.173,243.681 215.223,243.646 215.900 L 243.600 216.800 258.600 216.800 C 274.444 216.800,274.040 216.850,273.166 215.000 C 272.853 214.338,272.825 214.390,273.001 215.300 M378.006 217.900 C 378.011 219.016,378.112 219.246,378.400 218.800 C 378.909 218.012,378.909 216.400,378.400 216.400 C 378.180 216.400,378.003 217.075,378.006 217.900 M114.854 217.787 C 115.190 218.123,118.000 219.216,118.000 219.011 C 118.000 218.901,117.348 218.538,116.551 218.205 C 115.075 217.589,114.518 217.451,114.854 217.787 M119.372 219.866 C 120.989 220.742,123.200 221.648,123.200 221.435 C 123.200 221.233,118.832 219.192,118.452 219.216 C 118.313 219.225,118.727 219.518,119.372 219.866 M176.806 220.033 C 176.809 220.565,176.989 221.270,177.206 221.600 C 177.482 222.022,177.523 221.785,177.342 220.800 C 177.025 219.075,176.798 218.749,176.806 220.033 M21.412 220.117 C 21.241 220.512,21.213 220.947,21.351 221.084 C 21.757 221.490,22.084 220.920,21.897 220.131 C 21.732 219.433,21.710 219.432,21.412 220.117 M177.693 224.000 C 177.693 224.770,177.775 225.085,177.876 224.700 C 177.976 224.315,177.976 223.685,177.876 223.300 C 177.775 222.915,177.693 223.230,177.693 224.000 M126.833 223.349 C 127.245 223.717,129.600 224.800,129.600 224.621 C 129.600 224.390,127.382 223.200,126.953 223.200 C 126.796 223.200,126.742 223.267,126.833 223.349 M377.200 224.000 C 377.200 224.440,377.380 224.800,377.600 224.800 C 377.820 224.800,378.000 224.440,378.000 224.000 C 378.000 223.560,377.820 223.200,377.600 223.200 C 377.380 223.200,377.200 223.560,377.200 224.000 M200.693 226.293 C 200.320 227.533,200.081 228.614,200.163 228.696 C 200.245 228.778,200.627 227.841,201.013 226.613 C 201.399 225.386,201.638 224.305,201.544 224.211 C 201.450 224.116,201.067 225.054,200.693 226.293 M315.015 225.300 C 315.912 228.305,316.521 230.012,316.651 229.882 C 316.842 229.691,315.187 224.400,314.936 224.400 C 314.831 224.400,314.867 224.805,315.015 225.300 M22.000 226.824 C 22.000 227.277,22.180 227.536,22.400 227.400 C 22.620 227.264,22.800 226.893,22.800 226.576 C 22.800 226.259,22.620 226.000,22.400 226.000 C 22.180 226.000,22.000 226.371,22.000 226.824 M135.688 228.891 C 136.726 229.912,137.850 231.344,138.184 232.073 C 138.588 232.955,138.707 233.065,138.538 232.400 C 138.200 231.067,136.573 228.974,135.042 227.903 C 134.199 227.315,134.407 227.632,135.688 228.891 M376.400 229.400 C 376.400 229.730,376.580 230.000,376.800 230.000 C 377.020 230.000,377.200 229.730,377.200 229.400 C 377.200 229.070,377.020 228.800,376.800 228.800 C 376.580 228.800,376.400 229.070,376.400 229.400 M178.531 232.200 C 178.533 233.740,178.605 234.321,178.692 233.491 C 178.779 232.661,178.777 231.401,178.689 230.691 C 178.600 229.981,178.529 230.660,178.531 232.200 M22.800 231.600 C 22.800 232.040,22.980 232.400,23.200 232.400 C 23.420 232.400,23.600 232.040,23.600 231.600 C 23.600 231.160,23.420 230.800,23.200 230.800 C 22.980 230.800,22.800 231.160,22.800 231.600 M138.872 235.451 C 138.742 239.160,137.176 241.709,133.859 243.612 C 132.726 244.261,131.990 244.794,132.222 244.796 C 135.228 244.823,139.388 239.112,139.096 235.358 L 138.944 233.400 138.872 235.451 M375.600 234.200 C 375.600 234.530,375.780 234.800,376.000 234.800 C 376.220 234.800,376.400 234.530,376.400 234.200 C 376.400 233.870,376.220 233.600,376.000 233.600 C 375.780 233.600,375.600 233.870,375.600 234.200 M77.300 234.265 C 76.399 234.628,76.593 268.545,77.500 269.232 C 78.096 269.682,78.125 269.678,77.700 269.201 C 77.076 268.501,76.964 234.993,77.584 234.610 C 77.795 234.479,79.050 234.919,80.373 235.586 C 81.695 236.254,82.917 236.791,83.089 236.781 C 83.260 236.770,82.230 236.149,80.800 235.400 C 78.025 233.947,78.060 233.958,77.300 234.265 M177.800 238.800 C 177.644 240.147,177.601 241.334,177.705 241.438 C 177.809 241.542,178.019 240.522,178.171 239.171 C 178.324 237.821,178.367 236.634,178.267 236.533 C 178.166 236.433,177.956 237.453,177.800 238.800 M85.600 237.814 C 85.600 238.093,88.506 239.231,88.891 239.103 C 89.082 239.039,88.420 238.684,87.419 238.313 C 86.419 237.942,85.600 237.717,85.600 237.814 M195.640 241.840 C 195.410 242.673,195.294 243.427,195.382 243.515 C 195.470 243.603,195.730 242.993,195.960 242.160 C 196.190 241.327,196.306 240.573,196.218 240.485 C 196.130 240.397,195.870 241.007,195.640 241.840 M374.292 241.042 C 374.131 241.202,374.000 241.609,374.000 241.947 C 374.000 242.397,374.118 242.442,374.445 242.115 C 374.690 241.870,374.821 241.463,374.737 241.210 C 374.652 240.957,374.452 240.881,374.292 241.042 M177.000 243.200 C 176.848 243.891,176.807 244.541,176.909 244.642 C 177.011 244.744,177.209 244.253,177.350 243.550 C 177.683 241.883,177.360 241.560,177.000 243.200 M99.600 242.794 C 99.930 243.011,100.635 243.191,101.167 243.194 C 102.451 243.202,102.125 242.975,100.400 242.658 C 99.415 242.477,99.178 242.518,99.600 242.794 M102.800 243.594 C 103.130 243.811,103.835 243.991,104.367 243.994 C 105.651 244.002,105.325 243.775,103.600 243.458 C 102.615 243.277,102.378 243.318,102.800 243.594 M106.200 244.390 C 106.964 244.728,109.514 244.957,109.167 244.656 C 109.075 244.576,108.190 244.404,107.200 244.273 C 105.998 244.114,105.666 244.153,106.200 244.390 M110.600 245.210 C 111.370 245.531,115.107 245.751,114.767 245.455 C 114.675 245.376,113.520 245.213,112.200 245.093 C 110.751 244.962,110.117 245.008,110.600 245.210 M116.905 245.887 C 117.514 245.979,118.414 245.977,118.905 245.882 C 119.397 245.787,118.900 245.711,117.800 245.714 C 116.700 245.717,116.297 245.795,116.905 245.887 M126.100 245.876 C 126.485 245.976,127.115 245.976,127.500 245.876 C 127.885 245.775,127.570 245.693,126.800 245.693 C 126.030 245.693,125.715 245.775,126.100 245.876 M121.091 246.289 C 121.801 246.377,123.061 246.379,123.891 246.292 C 124.721 246.205,124.140 246.133,122.600 246.131 C 121.060 246.129,120.381 246.200,121.091 246.289 M234.865 250.217 C 234.609 250.778,234.408 251.544,234.418 251.919 C 234.427 252.293,234.689 251.887,235.000 251.015 C 235.645 249.204,235.559 248.694,234.865 250.217 M281.457 249.600 C 281.708 249.930,282.002 250.560,282.111 251.000 C 282.297 251.760,282.310 251.757,282.354 250.949 C 282.379 250.481,282.085 249.851,281.700 249.549 C 281.091 249.072,281.060 249.078,281.457 249.600 M173.882 251.811 C 173.292 253.015,172.894 254.000,172.998 254.000 C 173.267 254.000,175.284 249.951,175.105 249.771 C 175.023 249.689,174.473 250.607,173.882 251.811 M282.644 253.400 C 282.973 254.871,283.202 255.190,283.194 254.167 C 283.191 253.745,283.005 253.130,282.782 252.800 C 282.485 252.362,282.448 252.524,282.644 253.400 M171.037 256.700 C 170.225 257.965,169.979 258.508,170.490 257.906 C 171.500 256.718,172.947 254.400,172.679 254.400 C 172.588 254.400,171.849 255.435,171.037 256.700 M324.822 254.714 C 324.793 255.398,326.871 261.663,327.063 261.470 C 327.146 261.387,326.680 259.718,326.029 257.760 C 325.377 255.802,324.834 254.431,324.822 254.714 M190.293 258.293 C 189.920 259.533,189.681 260.614,189.763 260.696 C 189.845 260.778,190.227 259.841,190.613 258.613 C 190.999 257.386,191.238 256.305,191.144 256.211 C 191.050 256.116,190.667 257.054,190.293 258.293 M233.049 256.615 C 232.912 256.973,232.815 257.566,232.834 257.933 C 232.853 258.300,233.027 258.069,233.221 257.420 C 233.598 256.158,233.465 255.533,233.049 256.615 M284.244 259.400 C 284.573 260.871,284.802 261.190,284.794 260.167 C 284.791 259.745,284.605 259.130,284.382 258.800 C 284.085 258.362,284.048 258.524,284.244 259.400 M232.249 259.415 C 232.112 259.773,232.015 260.366,232.034 260.733 C 232.053 261.100,232.227 260.869,232.421 260.220 C 232.798 258.958,232.665 258.333,232.249 259.415 M165.800 262.588 C 164.040 264.385,161.970 266.335,161.200 266.923 C 160.430 267.510,159.928 267.993,160.084 267.996 C 160.593 268.004,165.972 263.318,167.845 261.234 C 170.683 258.078,169.362 258.952,165.800 262.588 M284.868 261.600 C 284.888 262.639,285.518 264.346,285.532 263.400 C 285.538 262.960,285.389 262.240,285.200 261.800 C 284.989 261.310,284.861 261.232,284.868 261.600 M231.400 262.800 C 231.248 263.491,231.207 264.141,231.309 264.242 C 231.411 264.344,231.609 263.853,231.750 263.150 C 231.891 262.447,231.931 261.798,231.841 261.708 C 231.750 261.617,231.552 262.109,231.400 262.800 M285.844 265.400 C 286.173 266.871,286.402 267.190,286.394 266.167 C 286.391 265.745,286.205 265.130,285.982 264.800 C 285.685 264.362,285.648 264.524,285.844 265.400 M230.649 265.415 C 230.512 265.773,230.415 266.366,230.434 266.733 C 230.453 267.100,230.627 266.869,230.821 266.220 C 231.198 264.958,231.065 264.333,230.649 265.415 M286.644 268.600 C 286.973 270.071,287.202 270.390,287.194 269.367 C 287.191 268.945,287.005 268.330,286.782 268.000 C 286.485 267.562,286.448 267.724,286.644 268.600 M79.200 270.200 C 79.750 270.514,80.380 270.772,80.600 270.772 C 80.820 270.772,80.550 270.514,80.000 270.200 C 79.450 269.886,78.820 269.628,78.600 269.628 C 78.380 269.628,78.650 269.886,79.200 270.200 M155.900 270.229 C 154.405 271.040,154.496 271.378,156.000 270.600 C 156.660 270.259,157.200 269.894,157.200 269.790 C 157.200 269.532,157.157 269.547,155.900 270.229 M229.049 271.415 C 228.912 271.773,228.815 272.366,228.834 272.733 C 228.853 273.100,229.027 272.869,229.221 272.220 C 229.598 270.958,229.465 270.333,229.049 271.415 M152.200 272.026 C 151.320 272.454,149.790 273.163,148.800 273.602 C 147.810 274.042,147.450 274.289,148.000 274.153 C 149.240 273.844,154.750 271.273,154.200 271.260 C 153.980 271.254,153.080 271.599,152.200 272.026 M185.197 274.011 C 184.526 276.503,183.715 276.416,206.624 276.300 L 227.800 276.193 206.500 276.096 C 194.785 276.043,185.200 275.864,185.200 275.697 C 185.200 275.531,185.377 274.778,185.593 274.024 C 185.809 273.270,185.911 272.578,185.819 272.486 C 185.728 272.394,185.448 273.080,185.197 274.011 M87.000 273.351 C 88.399 273.956,90.400 274.487,90.400 274.254 C 90.400 274.067,86.611 272.792,86.125 272.816 C 85.946 272.824,86.340 273.065,87.000 273.351 M331.304 274.800 L 331.400 275.800 310.200 276.005 L 289.000 276.211 310.000 276.299 C 331.924 276.392,332.290 276.366,331.616 274.769 L 331.207 273.800 331.304 274.800 M91.400 274.800 C 91.840 274.989,92.470 275.144,92.800 275.144 C 93.178 275.144,93.104 275.017,92.600 274.800 C 92.160 274.611,91.530 274.456,91.200 274.456 C 90.822 274.456,90.896 274.583,91.400 274.800 M94.400 275.600 C 95.768 276.038,96.819 276.038,95.800 275.600 C 95.360 275.411,94.640 275.262,94.200 275.268 C 93.557 275.277,93.596 275.343,94.400 275.600 M142.400 275.618 C 141.962 275.915,142.124 275.952,143.000 275.756 C 144.471 275.427,144.790 275.198,143.767 275.206 C 143.345 275.209,142.730 275.395,142.400 275.618 M37.200 276.400 C 37.200 276.620,37.380 276.800,37.600 276.800 C 37.820 276.800,38.000 277.250,38.000 277.800 C 38.000 278.350,38.180 278.800,38.400 278.800 C 38.620 278.800,38.800 279.160,38.800 279.600 C 38.800 280.366,39.223 280.644,39.685 280.182 C 39.985 279.881,38.017 276.000,37.564 276.000 C 37.364 276.000,37.200 276.180,37.200 276.400 M96.833 276.147 C 96.925 276.228,97.720 276.404,98.600 276.538 C 99.715 276.707,99.958 276.671,99.400 276.419 C 98.632 276.071,96.490 275.844,96.833 276.147 M139.000 276.419 C 138.442 276.671,138.685 276.707,139.800 276.538 C 140.680 276.404,141.475 276.228,141.567 276.147 C 141.910 275.844,139.768 276.071,139.000 276.419 M100.833 276.947 C 100.925 277.028,102.170 277.193,103.600 277.315 C 105.238 277.454,105.756 277.418,105.000 277.215 C 103.778 276.889,100.530 276.680,100.833 276.947 M134.400 277.220 C 133.726 277.449,134.051 277.484,135.400 277.328 C 136.500 277.201,137.475 277.031,137.567 276.949 C 137.882 276.668,135.399 276.880,134.400 277.220 M108.711 277.893 C 109.651 277.978,111.091 277.977,111.911 277.891 C 112.730 277.805,111.960 277.736,110.200 277.737 C 108.440 277.739,107.770 277.809,108.711 277.893 M120.600 278.000 L 113.400 278.228 120.200 278.264 C 123.940 278.284,128.260 278.171,129.800 278.013 L 132.600 277.726 130.200 277.749 C 128.880 277.762,124.560 277.875,120.600 278.000 M39.600 281.400 C 39.600 281.730,39.780 282.000,40.000 282.000 C 40.220 282.000,40.400 281.730,40.400 281.400 C 40.400 281.070,40.220 280.800,40.000 280.800 C 39.780 280.800,39.600 281.070,39.600 281.400 M164.600 376.000 C 164.736 376.220,165.107 376.400,165.424 376.400 C 165.741 376.400,166.000 376.220,166.000 376.000 C 166.000 375.780,165.629 375.600,165.176 375.600 C 164.723 375.600,164.464 375.780,164.600 376.000 M169.000 376.800 C 169.136 377.020,169.507 377.200,169.824 377.200 C 170.141 377.200,170.400 377.020,170.400 376.800 C 170.400 376.580,170.029 376.400,169.576 376.400 C 169.123 376.400,168.864 376.580,169.000 376.800 M229.200 376.800 C 229.200 377.020,229.459 377.200,229.776 377.200 C 230.093 377.200,230.464 377.020,230.600 376.800 C 230.736 376.580,230.477 376.400,230.024 376.400 C 229.571 376.400,229.200 376.580,229.200 376.800 M174.200 377.600 C 174.336 377.820,174.887 378.000,175.424 378.000 C 175.961 378.000,176.400 377.820,176.400 377.600 C 176.400 377.380,175.849 377.200,175.176 377.200 C 174.463 377.200,174.056 377.367,174.200 377.600 M223.200 377.600 C 223.200 377.820,223.560 378.000,224.000 378.000 C 224.440 378.000,224.800 377.820,224.800 377.600 C 224.800 377.380,224.440 377.200,224.000 377.200 C 223.560 377.200,223.200 377.380,223.200 377.600 M182.000 378.400 C 182.000 378.620,182.439 378.800,182.976 378.800 C 183.513 378.800,184.064 378.620,184.200 378.400 C 184.344 378.167,183.937 378.000,183.224 378.000 C 182.551 378.000,182.000 378.180,182.000 378.400 M215.400 378.400 C 215.536 378.620,216.187 378.800,216.847 378.800 C 217.545 378.800,217.944 378.633,217.800 378.400 C 217.664 378.180,217.013 378.000,216.353 378.000 C 215.655 378.000,215.256 378.167,215.400 378.400 " stroke="none" fill="#535353" fill-rule="evenodd"></path><path id="path4" d="M131.091 129.889 C 131.801 129.977,133.061 129.979,133.891 129.892 C 134.721 129.805,134.140 129.733,132.600 129.731 C 131.060 129.729,130.381 129.800,131.091 129.889 M125.900 130.289 C 126.615 130.378,127.785 130.378,128.500 130.289 C 129.215 130.201,128.630 130.128,127.200 130.128 C 125.770 130.128,125.185 130.201,125.900 130.289 M136.700 130.289 C 137.415 130.378,138.585 130.378,139.300 130.289 C 140.015 130.201,139.430 130.128,138.000 130.128 C 136.570 130.128,135.985 130.201,136.700 130.289 M118.800 130.820 C 118.126 131.049,118.451 131.084,119.800 130.928 C 120.900 130.801,121.875 130.631,121.967 130.549 C 122.282 130.268,119.799 130.480,118.800 130.820 M143.233 130.549 C 143.325 130.631,144.300 130.801,145.400 130.928 C 146.749 131.084,147.074 131.049,146.400 130.820 C 145.401 130.480,142.918 130.268,143.233 130.549 M114.200 131.600 C 113.181 132.038,114.232 132.038,115.600 131.600 C 116.404 131.343,116.443 131.277,115.800 131.268 C 115.360 131.262,114.640 131.411,114.200 131.600 M244.900 131.500 C 252.105 131.561,263.895 131.561,271.100 131.500 C 278.305 131.439,272.410 131.389,258.000 131.389 C 243.590 131.389,237.695 131.439,244.900 131.500 M110.600 132.400 C 110.096 132.617,110.022 132.744,110.400 132.744 C 110.730 132.744,111.360 132.589,111.800 132.400 C 112.304 132.183,112.378 132.056,112.000 132.056 C 111.670 132.056,111.040 132.211,110.600 132.400 M153.233 132.144 C 153.325 132.223,153.940 132.408,154.600 132.556 C 155.476 132.752,155.638 132.715,155.200 132.418 C 154.660 132.053,152.832 131.798,153.233 132.144 M95.310 139.160 C 93.983 140.018,92.784 140.903,92.645 141.126 C 92.444 141.452,97.352 138.346,97.967 137.759 C 98.544 137.208,97.387 137.818,95.310 139.160 M90.575 142.900 L 89.400 144.200 90.700 143.025 C 91.415 142.379,92.000 141.794,92.000 141.725 C 92.000 141.416,91.670 141.688,90.575 142.900 M87.798 145.365 C 87.579 145.676,86.800 146.666,86.066 147.565 C 84.113 149.960,84.737 149.560,86.947 147.000 C 87.991 145.790,88.700 144.800,88.521 144.800 C 88.342 144.800,88.017 145.054,87.798 145.365 M83.904 150.500 C 83.012 151.865,81.527 154.861,81.672 155.004 C 81.742 155.074,82.466 153.886,83.281 152.365 C 84.749 149.622,85.034 148.771,83.904 150.500 M257.600 156.667 C 257.600 157.033,257.726 157.208,257.879 157.054 C 258.033 156.901,258.386 157.186,258.665 157.687 C 258.944 158.189,259.178 158.363,259.186 158.074 C 259.206 157.321,258.442 156.000,257.986 156.000 C 257.774 156.000,257.600 156.300,257.600 156.667 M259.256 160.000 C 259.256 160.330,259.411 160.960,259.600 161.400 C 259.817 161.904,259.944 161.978,259.944 161.600 C 259.944 161.270,259.789 160.640,259.600 160.200 C 259.383 159.696,259.256 159.622,259.256 160.000 M79.449 161.015 C 79.312 161.373,79.215 161.966,79.234 162.333 C 79.253 162.700,79.427 162.469,79.621 161.820 C 79.998 160.558,79.865 159.933,79.449 161.015 M125.600 161.200 C 124.256 161.631,125.708 161.631,127.400 161.200 C 128.478 160.926,128.498 160.894,127.600 160.887 C 127.050 160.883,126.150 161.024,125.600 161.200 M135.300 161.076 C 135.685 161.176,136.315 161.176,136.700 161.076 C 137.085 160.975,136.770 160.893,136.000 160.893 C 135.230 160.893,134.915 160.975,135.300 161.076 M141.800 162.000 C 142.240 162.189,142.960 162.338,143.400 162.332 C 144.043 162.323,144.004 162.257,143.200 162.000 C 141.832 161.562,140.781 161.562,141.800 162.000 M256.250 163.250 C 255.917 164.917,256.240 165.240,256.600 163.600 C 256.752 162.909,256.793 162.259,256.691 162.158 C 256.589 162.056,256.391 162.547,256.250 163.250 M119.943 163.700 C 119.179 164.415,118.924 164.713,119.377 164.362 C 119.830 164.012,120.645 163.427,121.189 163.062 C 121.733 162.698,121.988 162.400,121.756 162.400 C 121.523 162.400,120.708 162.985,119.943 163.700 M145.600 162.782 C 145.930 163.005,146.545 163.191,146.967 163.194 C 147.990 163.202,147.671 162.973,146.200 162.644 C 145.324 162.448,145.162 162.485,145.600 162.782 M260.056 163.600 C 260.056 163.930,260.211 164.560,260.400 165.000 C 260.617 165.504,260.744 165.578,260.744 165.200 C 260.744 164.870,260.589 164.240,260.400 163.800 C 260.183 163.296,260.056 163.222,260.056 163.600 M78.653 165.236 C 78.514 165.931,78.421 166.972,78.447 167.550 C 78.472 168.128,78.655 167.627,78.852 166.439 C 79.237 164.121,79.073 163.134,78.653 165.236 M255.429 167.029 C 255.281 167.615,255.238 168.172,255.332 168.266 C 255.427 168.360,255.624 167.958,255.771 167.371 C 255.919 166.785,255.962 166.228,255.868 166.134 C 255.773 166.040,255.576 166.442,255.429 167.029 M260.856 166.800 C 260.856 167.130,261.011 167.760,261.200 168.200 C 261.417 168.704,261.544 168.778,261.544 168.400 C 261.544 168.070,261.389 167.440,261.200 167.000 C 260.983 166.496,260.856 166.422,260.856 166.800 M166.800 168.002 C 166.800 168.296,166.502 168.866,166.138 169.269 C 165.774 169.671,165.653 170.000,165.870 170.000 C 166.393 170.000,167.409 168.076,167.067 167.734 C 166.920 167.587,166.800 167.707,166.800 168.002 M254.629 170.629 C 254.481 171.215,254.438 171.772,254.532 171.866 C 254.627 171.960,254.824 171.558,254.971 170.971 C 255.119 170.385,255.162 169.828,255.068 169.734 C 254.973 169.640,254.776 170.042,254.629 170.629 M261.606 170.233 C 261.609 170.655,261.795 171.270,262.018 171.600 C 262.315 172.038,262.352 171.876,262.156 171.000 C 261.827 169.529,261.598 169.210,261.606 170.233 M254.046 173.267 C 254.021 173.634,253.896 174.264,253.770 174.667 C 253.552 175.362,253.563 175.363,253.997 174.687 C 254.248 174.296,254.373 173.666,254.273 173.287 C 254.111 172.668,254.088 172.666,254.046 173.267 M119.800 176.800 C 120.659 177.680,121.452 178.400,121.562 178.400 C 121.672 178.400,121.059 177.680,120.200 176.800 C 119.341 175.920,118.548 175.200,118.438 175.200 C 118.328 175.200,118.941 175.920,119.800 176.800 M78.447 177.033 C 78.473 177.895,78.639 179.140,78.815 179.800 C 79.018 180.556,79.054 180.038,78.915 178.400 C 78.667 175.486,78.375 174.631,78.447 177.033 M253.029 177.429 C 252.881 178.015,252.838 178.572,252.932 178.666 C 253.027 178.760,253.224 178.358,253.371 177.771 C 253.519 177.185,253.562 176.628,253.468 176.534 C 253.373 176.440,253.176 176.842,253.029 177.429 M123.600 179.620 C 124.987 180.561,125.778 180.835,124.800 180.036 C 124.250 179.586,123.620 179.217,123.400 179.215 C 123.180 179.213,123.270 179.396,123.600 179.620 M252.229 180.629 C 252.081 181.215,252.038 181.772,252.132 181.866 C 252.227 181.960,252.424 181.558,252.571 180.971 C 252.719 180.385,252.762 179.828,252.668 179.734 C 252.573 179.640,252.376 180.042,252.229 180.629 M79.268 182.600 C 79.262 183.040,79.411 183.760,79.600 184.200 C 80.038 185.219,80.038 184.168,79.600 182.800 C 79.343 181.996,79.277 181.957,79.268 182.600 M129.200 182.598 C 129.200 182.867,133.249 184.884,133.429 184.705 C 133.511 184.623,132.593 184.073,131.389 183.482 C 130.185 182.892,129.200 182.494,129.200 182.598 M264.856 182.800 C 264.856 183.130,265.011 183.760,265.200 184.200 C 265.417 184.704,265.544 184.778,265.544 184.400 C 265.544 184.070,265.389 183.440,265.200 183.000 C 264.983 182.496,264.856 182.422,264.856 182.800 M251.429 183.829 C 251.281 184.415,251.238 184.972,251.332 185.066 C 251.427 185.160,251.624 184.758,251.771 184.171 C 251.919 183.585,251.962 183.028,251.868 182.934 C 251.773 182.840,251.576 183.242,251.429 183.829 M265.656 186.000 C 265.656 186.330,265.811 186.960,266.000 187.400 C 266.217 187.904,266.344 187.978,266.344 187.600 C 266.344 187.270,266.189 186.640,266.000 186.200 C 265.783 185.696,265.656 185.622,265.656 186.000 M250.629 187.029 C 250.481 187.615,250.438 188.172,250.532 188.266 C 250.627 188.360,250.824 187.958,250.971 187.371 C 251.119 186.785,251.162 186.228,251.068 186.134 C 250.973 186.040,250.776 186.442,250.629 187.029 M81.600 190.153 C 81.600 190.582,82.790 192.800,83.021 192.800 C 83.131 192.800,82.923 192.215,82.559 191.500 C 81.817 190.040,81.600 189.736,81.600 190.153 M152.400 193.779 C 152.400 193.889,152.940 194.259,153.600 194.600 C 154.260 194.941,154.800 195.131,154.800 195.021 C 154.800 194.911,154.260 194.541,153.600 194.200 C 152.940 193.859,152.400 193.669,152.400 193.779 M157.011 196.539 C 158.919 197.841,160.000 198.478,160.000 198.299 C 160.000 198.045,156.904 196.000,156.520 196.000 C 156.356 196.000,156.577 196.242,157.011 196.539 M86.706 198.634 C 88.347 200.768,93.014 205.158,95.352 206.767 C 98.152 208.693,97.563 207.980,94.431 205.651 C 92.908 204.518,90.264 202.108,88.556 200.296 C 86.848 198.483,86.016 197.735,86.706 198.634 M268.856 198.000 C 268.856 198.330,269.011 198.960,269.200 199.400 C 269.417 199.904,269.544 199.978,269.544 199.600 C 269.544 199.270,269.389 198.640,269.200 198.200 C 268.983 197.696,268.856 197.622,268.856 198.000 M160.400 198.525 C 160.400 198.624,161.061 199.209,161.868 199.825 C 162.676 200.441,163.211 200.741,163.056 200.491 C 162.740 199.979,160.400 198.247,160.400 198.525 M247.429 199.429 C 247.281 200.015,247.238 200.572,247.332 200.666 C 247.427 200.760,247.624 200.358,247.771 199.771 C 247.919 199.185,247.962 198.628,247.868 198.534 C 247.773 198.440,247.576 198.842,247.429 199.429 M167.400 204.400 C 168.483 205.500,169.460 206.400,169.570 206.400 C 169.680 206.400,168.883 205.500,167.800 204.400 C 166.717 203.300,165.740 202.400,165.630 202.400 C 165.520 202.400,166.317 203.300,167.400 204.400 M270.456 204.000 C 270.456 204.330,270.611 204.960,270.800 205.400 C 271.017 205.904,271.144 205.978,271.144 205.600 C 271.144 205.270,270.989 204.640,270.800 204.200 C 270.583 203.696,270.456 203.622,270.456 204.000 M245.029 208.629 C 244.881 209.215,244.838 209.772,244.932 209.866 C 245.027 209.960,245.224 209.558,245.371 208.971 C 245.519 208.385,245.562 207.828,245.468 207.734 C 245.373 207.640,245.176 208.042,245.029 208.629 M98.200 208.596 C 99.094 209.339,101.628 210.709,101.000 210.110 C 100.780 209.900,99.880 209.324,99.000 208.830 C 98.120 208.335,97.760 208.230,98.200 208.596 M272.856 213.200 C 272.856 213.530,273.011 214.160,273.200 214.600 C 273.417 215.104,273.544 215.178,273.544 214.800 C 273.544 214.470,273.389 213.840,273.200 213.400 C 272.983 212.896,272.856 212.822,272.856 213.200 M243.429 214.629 C 243.281 215.215,243.238 215.772,243.332 215.866 C 243.427 215.960,243.624 215.558,243.771 214.971 C 243.919 214.385,243.962 213.828,243.868 213.734 C 243.773 213.640,243.576 214.042,243.429 214.629 M273.600 216.333 C 273.600 216.679,269.636 216.825,258.300 216.895 L 243.000 216.990 258.175 217.100 C 272.432 217.203,274.792 217.059,273.873 216.140 C 273.723 215.990,273.600 216.077,273.600 216.333 M176.868 222.000 C 176.888 223.039,177.518 224.746,177.532 223.800 C 177.538 223.360,177.389 222.640,177.200 222.200 C 176.989 221.710,176.861 221.632,176.868 222.000 M129.600 224.179 C 129.600 224.289,130.140 224.659,130.800 225.000 C 131.460 225.341,132.000 225.531,132.000 225.421 C 132.000 225.311,131.460 224.941,130.800 224.600 C 130.140 224.259,129.600 224.069,129.600 224.179 M177.800 232.000 C 177.800 237.522,177.839 237.883,178.155 235.302 C 178.362 233.613,178.362 231.025,178.155 229.102 C 177.822 226.000,177.800 226.176,177.800 232.000 M134.984 227.670 C 135.653 228.258,136.715 229.338,137.344 230.070 C 137.973 230.801,138.303 231.040,138.077 230.600 C 137.657 229.784,135.495 227.663,134.384 226.979 C 134.046 226.771,134.316 227.081,134.984 227.670 M77.467 234.667 C 77.320 234.813,77.200 242.450,77.200 251.638 C 77.200 269.051,77.251 269.600,78.873 269.600 C 79.102 269.600,78.905 269.285,78.435 268.900 C 77.368 268.024,77.265 234.889,78.330 235.110 C 78.621 235.170,78.745 235.035,78.606 234.810 C 78.315 234.339,77.853 234.281,77.467 234.667 M139.301 235.800 C 139.305 236.680,139.387 236.993,139.483 236.495 C 139.579 235.998,139.575 235.278,139.475 234.895 C 139.375 234.513,139.296 234.920,139.301 235.800 M177.249 240.200 C 177.216 240.640,177.096 241.450,176.983 242.000 L 176.777 243.000 177.206 242.019 C 177.442 241.479,177.561 240.669,177.472 240.219 C 177.313 239.421,177.307 239.421,177.249 240.200 M137.406 241.088 L 136.704 242.200 137.630 241.311 C 138.139 240.822,138.455 240.322,138.332 240.199 C 138.209 240.076,137.792 240.476,137.406 241.088 M134.818 243.450 C 132.936 244.786,132.771 245.018,134.229 244.277 C 134.905 243.934,135.692 243.371,135.978 243.026 C 136.660 242.205,136.477 242.272,134.818 243.450 M100.433 243.344 C 100.525 243.423,101.140 243.608,101.800 243.756 C 102.676 243.952,102.838 243.915,102.400 243.618 C 101.860 243.253,100.032 242.998,100.433 243.344 M104.600 244.400 C 105.040 244.589,105.670 244.744,106.000 244.744 C 106.378 244.744,106.304 244.617,105.800 244.400 C 105.360 244.211,104.730 244.056,104.400 244.056 C 104.022 244.056,104.096 244.183,104.600 244.400 M114.000 246.020 C 116.414 246.450,118.306 246.413,116.200 245.977 C 115.320 245.795,114.060 245.658,113.400 245.673 C 112.500 245.693,112.650 245.780,114.000 246.020 M127.600 246.000 C 126.808 246.254,126.767 246.320,127.400 246.320 C 127.840 246.320,128.650 246.176,129.200 246.000 C 129.992 245.746,130.033 245.680,129.400 245.680 C 128.960 245.680,128.150 245.824,127.600 246.000 M233.829 252.229 C 233.681 252.815,233.638 253.372,233.732 253.466 C 233.827 253.560,234.024 253.158,234.171 252.571 C 234.319 251.985,234.362 251.428,234.268 251.334 C 234.173 251.240,233.976 251.642,233.829 252.229 M171.965 254.500 C 171.710 254.995,170.803 256.337,169.950 257.483 C 168.037 260.053,167.894 260.752,169.765 258.388 C 171.220 256.548,172.991 253.600,172.640 253.600 C 172.523 253.600,172.220 254.005,171.965 254.500 M283.256 254.000 C 283.256 254.330,283.411 254.960,283.600 255.400 C 283.817 255.904,283.944 255.978,283.944 255.600 C 283.944 255.270,283.789 254.640,283.600 254.200 C 283.383 253.696,283.256 253.622,283.256 254.000 M284.856 260.000 C 284.856 260.330,285.011 260.960,285.200 261.400 C 285.417 261.904,285.544 261.978,285.544 261.600 C 285.544 261.270,285.389 260.640,285.200 260.200 C 284.983 259.696,284.856 259.622,284.856 260.000 M165.586 262.700 L 163.400 265.000 165.700 262.814 C 166.965 261.611,168.000 260.576,168.000 260.514 C 168.000 260.217,167.618 260.563,165.586 262.700 M229.829 267.029 C 229.681 267.615,229.638 268.172,229.732 268.266 C 229.827 268.360,230.024 267.958,230.171 267.371 C 230.319 266.785,230.362 266.228,230.268 266.134 C 230.173 266.040,229.976 266.442,229.829 267.029 M287.256 269.200 C 287.256 269.530,287.411 270.160,287.600 270.600 C 287.817 271.104,287.944 271.178,287.944 270.800 C 287.944 270.470,287.789 269.840,287.600 269.400 C 287.383 268.896,287.256 268.822,287.256 269.200 M96.200 275.600 C 96.640 275.789,97.270 275.944,97.600 275.944 C 97.978 275.944,97.904 275.817,97.400 275.600 C 96.960 275.411,96.330 275.256,96.000 275.256 C 95.622 275.256,95.696 275.383,96.200 275.600 M140.800 275.600 C 139.976 275.864,139.941 275.926,140.600 275.954 C 141.040 275.973,141.670 275.813,142.000 275.600 C 142.701 275.147,142.214 275.147,140.800 275.600 M100.000 276.400 C 100.550 276.576,101.450 276.717,102.000 276.713 C 102.898 276.706,102.878 276.674,101.800 276.400 C 100.108 275.969,98.656 275.969,100.000 276.400 M137.000 276.400 C 135.911 276.677,135.893 276.707,136.800 276.725 C 137.350 276.735,138.160 276.589,138.600 276.400 C 139.586 275.976,138.666 275.976,137.000 276.400 M106.200 277.206 C 107.801 277.554,111.081 277.731,110.767 277.452 C 110.675 277.371,109.250 277.204,107.600 277.081 C 105.376 276.916,105.014 276.948,106.200 277.206 M130.500 277.476 C 130.885 277.576,131.515 277.576,131.900 277.476 C 132.285 277.375,131.970 277.293,131.200 277.293 C 130.430 277.293,130.115 277.375,130.500 277.476 M118.100 277.897 C 119.585 277.974,122.015 277.974,123.500 277.897 C 124.985 277.820,123.770 277.757,120.800 277.757 C 117.830 277.757,116.615 277.820,118.100 277.897 " stroke="none" fill="#848484" fill-rule="evenodd"></path></g></svg>